<svg width="93" height="13" viewBox="0 0 93 13" fill="none" xmlns="http://www.w3.org/2000/svg">
<path d="M0 12.0309V0.19186H1.89347V10.3623H7.05747V12.0309H0ZM12.5442 12.2208C11.6777 12.2208 10.909 12.0251 10.2341 11.6336C9.57101 11.2305 9.05266 10.6918 8.67905 10.0135C8.30544 9.32549 8.11766 8.55612 8.11766 7.70923C8.11766 6.86234 8.30544 6.07165 8.67905 5.40499C9.0644 4.73833 9.57688 4.21314 10.2185 3.83136C10.8601 3.43989 11.5877 3.24416 12.3995 3.24416C13.0508 3.24416 13.6338 3.35462 14.1482 3.57749C14.6626 3.80035 15.0949 4.10655 15.447 4.49996C15.7991 4.88174 16.0671 5.32166 16.249 5.81971C16.4407 6.31777 16.5385 6.84684 16.5385 7.40885C16.5385 7.54644 16.5326 7.68985 16.5229 7.83714C16.5131 7.98442 16.4916 8.12396 16.4583 8.24992H9.54559V6.81971H15.4314L14.5648 7.47086C14.6724 6.95149 14.6353 6.49025 14.4533 6.08909C14.2812 5.6763 14.0152 5.35266 13.6514 5.12011C13.2993 4.87592 12.8807 4.75383 12.3995 4.75383C11.9183 4.75383 11.4899 4.87592 11.1163 5.12011C10.7427 5.35266 10.4532 5.69181 10.2498 6.13754C10.0463 6.57164 9.96614 7.10071 10.0092 7.72667C9.95636 8.31 10.0366 8.81775 10.2498 9.25185C10.4747 9.68596 10.7838 10.0251 11.1809 10.2693C11.5877 10.5135 12.0474 10.6356 12.5599 10.6356C13.0724 10.6356 13.5281 10.5193 13.892 10.2867C14.2656 10.0542 14.5609 9.75185 14.7741 9.3817L16.249 10.0968C16.0769 10.4999 15.8109 10.8642 15.447 11.1937C15.0949 11.5115 14.6666 11.7654 14.1638 11.9573C13.6709 12.1375 13.131 12.2266 12.5442 12.2266V12.2208ZM22.4928 12.2208C21.6595 12.2208 20.8947 12.0251 20.1983 11.6336C19.5137 11.2421 18.9679 10.7073 18.563 10.029C18.1562 9.35069 17.9527 8.58325 17.9527 7.72473C17.9527 6.86622 18.1562 6.08715 18.563 5.42049C18.9699 4.7422 19.5137 4.21314 20.1983 3.83136C20.8829 3.43989 21.6477 3.24416 22.4928 3.24416C23.3378 3.24416 24.1124 3.43989 24.7872 3.83136C25.4718 4.21314 26.0117 4.7422 26.4068 5.42049C26.8137 6.08715 27.0171 6.85653 27.0171 7.72473C27.0171 8.59294 26.8137 9.36619 26.4068 10.0445C26 10.7228 25.4542 11.2576 24.7716 11.6491C24.087 12.0309 23.328 12.2208 22.4947 12.2208H22.4928ZM22.4928 10.5522C23.0053 10.5522 23.461 10.4301 23.8561 10.186C24.2513 9.94177 24.5623 9.60844 24.7872 9.18402C25.0219 8.74992 25.1393 8.26155 25.1393 7.7228C25.1393 7.18404 25.0219 6.69955 24.7872 6.27707C24.5623 5.85266 24.2532 5.51933 23.8561 5.27515C23.461 5.03096 23.0053 4.90887 22.4928 4.90887C21.9803 4.90887 21.5363 5.03096 21.1294 5.27515C20.7343 5.51933 20.4174 5.85266 20.1827 6.27707C19.9577 6.70149 19.8462 7.1821 19.8462 7.7228C19.8462 8.26349 19.9577 8.74992 20.1827 9.18402C20.4174 9.60844 20.7343 9.94177 21.1294 10.186C21.5363 10.4301 21.9901 10.5522 22.4928 10.5522ZM28.7854 12.0309V3.43408H30.5185V5.11817L30.3092 4.8953C30.5224 4.35461 30.8647 3.94764 31.3361 3.67245C31.8056 3.38563 32.3513 3.24416 32.9714 3.24416C33.5915 3.24416 34.1802 3.38175 34.6712 3.65694C35.1622 3.93213 35.5475 4.31391 35.8253 4.80034C36.1031 5.28677 36.2419 5.84878 36.2419 6.48444V12.0309H34.4463V6.96118C34.4463 6.52707 34.3661 6.1608 34.2057 5.86429C34.0453 5.55809 33.8164 5.32359 33.5152 5.16468C33.2257 4.99608 32.8951 4.91081 32.5215 4.91081C32.1479 4.91081 31.8095 4.99608 31.5102 5.16468C31.2207 5.32359 30.9977 5.55615 30.8373 5.86429C30.6769 6.17049 30.5967 6.53676 30.5967 6.96118V12.0309H28.7835H28.7854ZM40.782 12.2208C40.1932 12.2208 39.6748 12.12 39.2269 11.9185C38.7887 11.7073 38.4464 11.4204 38.1999 11.06C37.9535 10.6898 37.8302 10.2557 37.8302 9.75766C37.8302 9.29255 37.932 8.87201 38.1354 8.50186C38.3486 8.13171 38.6753 7.81776 39.1134 7.56388C39.5516 7.31001 40.1032 7.12978 40.7663 7.02319L43.7826 6.53095V7.94566L41.1203 8.4069C40.6392 8.49217 40.2871 8.64527 40.0621 8.86814C39.8372 9.07937 39.7257 9.35457 39.7257 9.69371C39.7257 10.0329 39.8489 10.2925 40.0954 10.5038C40.3516 10.7053 40.6783 10.8061 41.0734 10.8061C41.5644 10.8061 41.9928 10.6995 42.3566 10.4883C42.7302 10.277 43.0197 9.99603 43.2231 9.64526C43.4265 9.2848 43.5283 8.88752 43.5283 8.45341V6.24413C43.5283 5.81971 43.3679 5.47669 43.0471 5.21119C42.7361 4.936 42.3194 4.79841 41.7952 4.79841C41.314 4.79841 40.8915 4.92631 40.5277 5.18019C40.1756 5.42437 39.9135 5.7422 39.7413 6.13366L38.2332 5.38755C38.3936 4.96313 38.6557 4.59298 39.0195 4.27516C39.3834 3.94764 39.8059 3.69183 40.2871 3.5116C40.778 3.33136 41.2983 3.24222 41.8421 3.24222C42.5268 3.24222 43.1312 3.37012 43.6554 3.624C44.1894 3.87787 44.6021 4.23252 44.8897 4.68794C45.189 5.13367 45.3396 5.65305 45.3396 6.24607V12.0309H43.6065V10.4728L43.9762 10.5212C43.7728 10.8701 43.5107 11.1724 43.1899 11.4263C42.8788 11.6801 42.5209 11.8759 42.116 12.0135C41.7209 12.1511 41.2768 12.2208 40.7839 12.2208H40.782ZM47.456 12.0309V3.43408H49.1891V5.16662L49.0287 4.91274C49.2204 4.35073 49.5314 3.94958 49.9598 3.70539C50.3882 3.45152 50.9007 3.32361 51.4992 3.32361H52.0293V4.96119H51.2762C50.6777 4.96119 50.1906 5.14724 49.817 5.51739C49.4532 5.87785 49.2713 6.39723 49.2713 7.07552V12.0328H47.458L47.456 12.0309ZM57.2774 12.2208C56.4441 12.2208 55.695 12.0251 55.0319 11.6336C54.3805 11.2305 53.8602 10.6918 53.4768 10.0135C53.1032 9.33519 52.9154 8.57356 52.9154 7.72473C52.9154 6.87591 53.1071 6.11429 53.4924 5.436C53.8778 4.75771 54.3961 4.22283 55.0475 3.83136C55.6989 3.43989 56.4383 3.24416 57.2618 3.24416C57.9562 3.24416 58.5723 3.38175 59.1063 3.65694C59.6404 3.93213 60.0629 4.31391 60.3739 4.80034L60.102 5.21313V0H61.8976V12.029H60.1822V10.2809L60.3915 10.6142C60.0922 11.1336 59.6638 11.5309 59.1083 11.8061C58.5528 12.0813 57.9425 12.2189 57.2794 12.2189L57.2774 12.2208ZM57.4535 10.5522C57.9562 10.5522 58.4041 10.4301 58.8012 10.186C59.2081 9.94177 59.523 9.60844 59.7479 9.18402C59.9827 8.74992 60.1 8.26155 60.1 7.7228C60.1 7.18404 59.9827 6.69955 59.7479 6.27707C59.523 5.85266 59.2081 5.51933 58.8012 5.27515C58.4061 5.03096 57.9562 4.90887 57.4535 4.90887C56.9508 4.90887 56.497 5.03096 56.0901 5.27515C55.6832 5.51933 55.3683 5.85266 55.1434 6.27707C54.9184 6.70149 54.8069 7.1821 54.8069 7.7228C54.8069 8.26349 54.9184 8.74992 55.1434 9.18402C55.3683 9.60844 55.6774 9.94177 56.0744 10.186C56.4813 10.4301 56.941 10.5522 57.4535 10.5522ZM68.2001 12.2208C67.3668 12.2208 66.602 12.0251 65.9056 11.6336C65.221 11.2421 64.6753 10.7073 64.2703 10.029C63.8635 9.35069 63.6601 8.58325 63.6601 7.72473C63.6601 6.86622 63.8635 6.08715 64.2703 5.42049C64.6772 4.7422 65.221 4.21314 65.9056 3.83136C66.5902 3.43989 67.3551 3.24416 68.2001 3.24416C69.0451 3.24416 69.8197 3.43989 70.4945 3.83136C71.1792 4.21314 71.719 4.7422 72.1142 5.42049C72.521 6.08715 72.7245 6.85653 72.7245 7.72473C72.7245 8.59294 72.521 9.36619 72.1142 10.0445C71.7073 10.7228 71.1616 11.2576 70.4789 11.6491C69.7943 12.0309 69.0353 12.2208 68.202 12.2208H68.2001ZM68.2001 10.5522C68.7126 10.5522 69.1683 10.4301 69.5635 10.186C69.9586 9.94177 70.2696 9.60844 70.4945 9.18402C70.7293 8.74992 70.8466 8.26155 70.8466 7.7228C70.8466 7.18404 70.7293 6.69955 70.4945 6.27707C70.2696 5.85266 69.9605 5.51933 69.5635 5.27515C69.1683 5.03096 68.7126 4.90887 68.2001 4.90887C67.6876 4.90887 67.2436 5.03096 66.8367 5.27515C66.4416 5.51933 66.1247 5.85266 65.89 6.27707C65.665 6.70149 65.5535 7.1821 65.5535 7.7228C65.5535 8.26349 65.665 8.74992 65.89 9.18402C66.1247 9.60844 66.4416 9.94177 66.8367 10.186C67.2436 10.4301 67.6974 10.5522 68.2001 10.5522ZM75.2947 12.0309V9.96502H77.1393V12.0309H75.2947Z" fill="white"/>
<path d="M79.1709 12.0307L83.3726 0.19165H85.714L89.9156 12.0307H87.895L86.9815 9.37761H82.1207L81.1896 12.0307H79.1689H79.1709ZM82.6684 7.70902H86.4064L84.29 1.51141H84.82L82.6703 7.70902H82.6684ZM91.1597 12.0307V3.43387H92.973V12.0307H91.1597ZM91.1597 2.25752V0.19165H92.973V2.25752H91.1597Z" fill="url(#paint0_linear_4343_53909)"/>
<defs>
<linearGradient id="paint0_linear_4343_53909" x1="76.4696" y1="13.9086" x2="95.6852" y2="0.865254" gradientUnits="userSpaceOnUse">
<stop stop-color="#FA5560"/>
<stop offset="0.5" stop-color="#B14BF4"/>
<stop offset="1" stop-color="#4D91FF"/>
</linearGradient>
</defs>
</svg>
