<svg width="161" height="41" viewBox="0 0 161 41" fill="none" xmlns="http://www.w3.org/2000/svg">
<mask id="mask0_2613_31030" style="mask-type:luminance" maskUnits="userSpaceOnUse" x="2" y="0" width="42" height="41">
<path d="M43.396 0.325928H2V40.3259H43.396V0.325928Z" fill="white"/>
</mask>
<g mask="url(#mask0_2613_31030)">
<path fill-rule="evenodd" clip-rule="evenodd" d="M12.4322 36.3155L13.345 35.7571L16.2443 38.7853L20.6255 40.0041L22.4188 39.6927L24.7866 39.9128L27.7289 39.2256L30.2953 37.6578L32.094 35.9504L32.8725 36.4605C32.7598 36.7773 32.5933 37.1746 32.5181 37.3679C33.9678 36.4927 35.3047 35.4135 36.4806 34.1732C36.4591 34.1947 36.4376 34.2162 36.4215 34.2323C36.7383 33.9102 37.0389 33.5665 37.3289 33.2175L39.7181 31.4618L41.7101 27.6122L42.5262 20.7128L41.0228 12.4659C40.3034 11.3598 38.6873 9.04573 37.9249 7.90748L31.7772 3.39741C29.9839 2.84976 24.0296 0.847076 22.2148 0.87929L15.2671 2.26989L9.5168 5.52359L5.16244 10.3021L4.01345 12.8471L2.06445 21.9316L3.83627 28.8739L5.87116 32.9008L10.4296 36.6377L12.2014 36.4605L12.2389 36.439C12.4215 36.5249 12.5289 36.5732 12.5289 36.5732C12.4967 36.4873 12.4591 36.3907 12.4322 36.3155Z" fill="#15134A"/>
<path d="M37.2333 7.12885C37.2333 7.12348 37.2279 7.12348 37.2279 7.11811C36.7823 7.05368 36.1541 7.05368 35.5527 7.11274C36.6964 8.15435 37.7326 9.42146 38.5756 10.6993C38.8494 10.4309 39.2628 10.3342 39.6386 10.404C39.6225 10.3772 39.6494 10.3933 39.6333 10.3664C39.8266 10.4148 39.9608 10.4631 40.1111 10.5973C39.3863 9.38388 38.4896 8.16509 37.5393 7.13421C37.4427 7.12348 37.3299 7.13421 37.2333 7.12885Z" fill="#986F09"/>
<path d="M30.5966 34.4793L31.8959 33.8457C31.3268 37.8725 26.5268 40.0524 23.7295 40.0202C24.1053 39.8269 24.4973 39.435 24.857 38.9732C27.1872 39.3222 30.4731 37.1423 30.5966 34.4793Z" fill="url(#paint0_linear_2613_31030)"/>
<path d="M23.729 40.0202C26.5531 40.047 31.1813 37.8564 31.8954 33.8457L33.388 33.1208C32.2498 37.7759 28.3625 40.0578 23.6484 40.0739L23.729 40.0202Z" fill="url(#paint1_linear_2613_31030)"/>
<path d="M23.6489 40.0793C25.3563 39.9504 27.0744 39.6014 28.5026 39.1934C27.1227 39.8377 25.4798 40.1974 23.6328 40.0846C23.6436 40.0793 23.6489 40.0793 23.6489 40.0793Z" fill="url(#paint2_linear_2613_31030)"/>
<path d="M34.3332 32.2243C34.7144 31.0592 35.0473 30.0605 35.0473 30.0605C35.0473 30.0605 34.6768 30.0444 34.1775 29.9531C34.0916 30.4202 33.8285 31.5961 33.4634 32.8202L33.4849 32.8095C33.1466 33.8082 32.5828 35.2363 32.1211 36.0041C32.3359 36.1598 32.8459 36.4981 32.8728 36.4874C33.3077 35.4833 33.8822 33.6525 34.3332 32.2243Z" fill="#FFE9B6"/>
<path d="M32.674 29.4805C33.1412 29.7113 33.7157 29.8724 34.1774 29.953C34.0915 30.4201 33.8767 31.5959 33.5063 32.8201L31.9277 33.5664C32.2391 32.0684 32.5774 30.1033 32.674 29.4805Z" fill="#F6515B"/>
<path d="M32.6746 29.4806C32.5779 30.1088 32.2826 32.0739 31.9766 33.5665L30.6504 34.1678C30.9833 31.7947 30.9564 28.4927 30.9564 28.4927C30.9564 28.4927 31.8155 29.0779 32.6746 29.4806Z" fill="#A70D75"/>
<path d="M14.7468 34.2054L13.4206 33.5611C13.1146 32.0631 12.771 30.1034 12.6797 29.4752C13.5387 29.0725 14.3978 28.4873 14.3978 28.4873C14.3978 28.4873 14.4085 31.8376 14.7468 34.2054Z" fill="#2B21EB"/>
<path d="M12.6747 29.4805C12.7714 30.1087 13.1096 32.0254 13.4157 33.5234L11.8372 32.8254C11.4721 31.6013 11.2519 30.4254 11.166 29.9583C11.6331 29.8724 12.2076 29.706 12.6747 29.4805Z" fill="#3858D6"/>
<path d="M13.4531 33.8457L14.7525 34.4793C14.8759 37.1423 18.1618 39.3222 20.4921 38.9786C20.8518 39.435 21.2437 39.8323 21.6196 40.0256C18.8008 40.047 14.033 37.8725 13.4531 33.8457Z" fill="url(#paint3_linear_2613_31030)"/>
<path d="M16.8507 39.1933C14.1125 37.9209 12.7648 35.7732 11.9648 33.1208L13.4575 33.8457C14.0266 37.8725 18.8266 40.0524 21.6239 40.0202L21.7044 40.0792C20.0454 39.9933 18.4185 39.698 16.8507 39.1933Z" fill="url(#paint4_linear_2613_31030)"/>
<path d="M11.9598 33.1209C11.6001 31.9021 11.2565 30.4095 11.1706 29.9478C10.6713 30.039 10.3008 30.0551 10.3008 30.0551C10.5907 30.9733 12.0082 35.3598 12.4914 36.4551C12.5182 36.4659 12.98 36.1384 13.1947 35.9827C12.6739 35.1182 12.2766 34.1035 11.9598 33.1209Z" fill="#FFE3B4"/>
<path fill-rule="evenodd" clip-rule="evenodd" d="M29.528 17.2765C29.834 19.6067 27.7293 21.4 26.8219 23.4886C25.877 23.1181 29.0555 17.6148 29.0877 17.4483C29.0877 17.4483 27.9333 17.9101 27.3803 18.1409C26.8273 18.3772 26.387 18.2537 25.9629 17.9262C25.6193 17.6577 25.2864 17.3517 24.9105 17.3517C24.7656 17.4805 24.6099 17.6416 24.6045 17.6631C24.5615 18.2161 24.4542 19.6604 25.1736 20.3208C25.9092 21.1584 26.0649 22.1678 26.0756 23.1664C25.8286 23.0107 25.2219 22.7799 25.4313 22.694C26.0434 22.2054 25.1253 20.6698 24.1427 20.8524C24.1427 20.8524 24.0676 18.1732 24.1535 17.8671C24.2072 17.6738 24.4595 17.4913 24.6689 17.3034H24.7387C26.0273 16.6537 26.43 18.7101 27.8528 17.0134L29.5226 17.2067C29.5226 17.2336 29.5226 17.255 29.528 17.2765Z" fill="url(#paint5_linear_2613_31030)"/>
<path d="M29.1209 6.42017L38.4578 10.9034C38.4041 10.9893 38.3611 11.0806 38.3289 11.1718C37.9424 10.8604 28.9759 7.01077 29.1209 6.42017Z" fill="#F9B309"/>
<path d="M38.2794 11.6282C38.2901 11.7302 38.317 11.8322 38.3546 11.9288H33.5277C33.4525 11.8644 33.3452 11.7624 33.2109 11.6282H38.2794Z" fill="#F9B309"/>
<path fill-rule="evenodd" clip-rule="evenodd" d="M43.3214 22.5168C43.1818 22.4899 43.053 22.4255 42.9456 22.3396C42.6288 29.1101 38.5214 35.0268 33.0449 38.6188C39.1013 35.9933 42.8167 28.9275 43.3214 22.5168Z" fill="#DC01FF"/>
<path d="M42.1732 26.7424C40.7235 31.7733 37.4268 35.9988 33.051 38.6243C32.4819 38.7532 32.0685 38.1572 32.3852 37.6955C32.847 38.023 34.0389 37.4914 35.0752 36.7022C38.3557 34.0981 41.0779 29.8726 42.1732 26.7424Z" fill="#FF8D02"/>
<path d="M36.6581 35.3222C38.2366 33.8779 39.493 32.0524 40.4004 30.4578C40.2984 30.6349 40.148 30.7799 39.9762 30.8819L39.9977 30.8497C39.6917 31.0162 39.289 31.0484 38.9883 30.8551C37.4098 33.4967 35.144 35.7947 32.5078 37.3732C32.4648 37.4806 32.4165 37.6041 32.3789 37.6953C33.297 38.3826 35.7024 36.2886 36.6581 35.3222Z" fill="#F05601"/>
<path d="M4.90026 30.0927C3.82643 28.3317 3.3271 27.0699 3.19824 26.6672C4.30428 31.6444 8.12173 36.0793 12.5674 38.635C13.0506 38.5491 13.2117 38.0713 12.9754 37.6954C12.8251 37.3196 12.6211 36.7988 12.4922 36.4605C10.2962 35.6444 7.93918 33.6525 6.3875 30.8713C5.92576 31.0162 5.53918 30.7209 5.06133 30.4417C5.03985 30.3344 4.93247 30.184 4.90026 30.0927Z" fill="#03B9FF"/>
<path d="M3.23004 26.7801C3.24078 26.7801 3.25152 26.7801 3.26226 26.7747C2.84347 25.3465 2.58038 23.7143 2.4891 22.1733C2.38709 22.2754 2.20991 22.329 2.07031 22.372C2.15622 28.2673 6.73071 36.8794 12.5723 38.6351C8.0891 36.0525 4.69582 31.8324 3.23004 26.7801Z" fill="#0165FE"/>
<path d="M6.19393 9.24432L5.82346 9.07788C3.06909 12.9437 1.72681 17.7598 2.07581 22.5007C2.2154 22.4577 2.43017 22.3235 2.53218 22.2215C2.24762 18.2054 3.46641 14.039 5.16305 10.9141C5.49057 10.3611 5.82346 9.7705 6.19393 9.24432Z" fill="#06C6FC"/>
<path d="M43.3699 20.7236C43.3163 15.8055 41.4424 10.984 38.1726 7.32224L37.5713 7.24707C41.3297 11.2793 43.3055 16.7075 42.9458 22.3451C43.0532 22.431 43.182 22.49 43.3216 22.5222C43.3646 21.9209 43.3807 21.3249 43.3699 20.7236Z" fill="#FF7801"/>
<path d="M38.1781 7.32215L37.5767 7.24698C36.111 5.66309 34.3499 4.35839 32.4492 3.30604L32.8197 2.99463C34.817 4.11678 36.6425 5.59329 38.1781 7.32215Z" fill="#01FF94"/>
<path d="M32.8142 2.99466L32.4437 3.30607C29.5336 1.69533 26.2316 0.77721 22.6719 0.77721V0.34768C26.2423 0.342311 29.7269 1.25506 32.8142 2.99466Z" fill="#FF8D02"/>
<path d="M39.5741 28.6108C39.5097 28.5571 39.3754 28.4175 39.2412 28.2994C39.2412 28.0256 39.2466 12.8363 39.2466 12.5732C39.3432 12.6001 39.4506 12.6323 39.5473 12.6269L39.5741 28.6108Z" fill="#F1CF25"/>
<path d="M38.8544 12.4766C38.9886 12.5464 39.1389 12.5464 39.2893 12.5571L39.2087 12.7289L34.747 19.7625C34.6665 19.3974 34.5967 19.0376 34.5322 18.6833L38.6933 12.7074L38.8544 12.4766Z" fill="#00E9BF"/>
<path d="M7.16013 11.6282H12.2715C12.1373 11.7624 12.0299 11.859 11.9548 11.9288H7.08496C7.12254 11.8268 7.14939 11.7302 7.16013 11.6282Z" fill="#FF7F16"/>
<path d="M6.98242 10.8604L16.4536 6.29126C16.722 6.92482 7.46564 10.8604 7.11128 11.1288C7.07907 11.0376 7.03611 10.9463 6.98242 10.8604Z" fill="#FFF3BF"/>
<path d="M6.06543 12.5947C6.24261 12.5786 6.45738 12.5249 6.60771 12.4336L6.75805 12.7074L10.8869 18.6188C10.8225 18.9678 10.7527 19.3276 10.6721 19.6927L6.06543 12.5947Z" fill="#FF5359"/>
<path d="M6.01164 12.5571C6.04386 12.5571 6.0707 12.5571 6.10292 12.5518V28.5249C5.97406 28.643 5.89352 28.7719 5.82909 28.8256L5.80762 12.5356C5.87205 12.5518 5.94185 12.5571 6.01164 12.5571Z" fill="#F89120"/>
<path d="M5.78003 10.4094C5.57063 10.4523 5.27533 10.6617 5.11426 10.8067C5.95721 9.5342 6.376 8.68051 7.74513 7.26843L8.1854 7.18252C8.18003 7.18789 8.23372 7.17715 8.22835 7.18252C8.66862 7.12346 9.22701 7.08051 9.82298 7.13957C8.65788 8.16507 7.65386 9.3785 6.80016 10.6563C6.53171 10.3664 6.15587 10.3772 5.78003 10.4094Z" fill="#E03528"/>
<path d="M22.6769 37.937C23.1118 37.9477 24.6582 38.6189 24.8246 38.6296C23.8957 39.9075 23.783 40.0847 22.6769 40.1545C21.6514 40.0578 21.4313 39.8699 20.5293 38.6296C20.6957 38.6189 22.2474 37.9424 22.6769 37.937Z" fill="#4F00EC"/>
<path d="M22.5426 6.20536L22.5641 6.97852C20.8084 7.09127 16.2983 10.9302 13.6084 11.6228C15.8312 10.1946 19.6326 6.11409 22.5426 6.20536Z" fill="#FF8701"/>
<path d="M29.3291 16.455C27.0526 5.92614 18.2956 5.94762 16.0244 16.455C16.2982 16.2402 16.8513 15.8537 17.4956 15.6496C18.0754 15.3597 17.4419 14.8389 17.5654 14.1463C17.9358 12.1167 20.3358 9.58789 22.6714 9.70064C25.2217 9.60399 27.3372 12.0147 27.6915 14.2322C27.815 14.9302 27.2298 15.204 27.8472 15.6496C28.5023 15.859 29.0499 16.2402 29.3291 16.455Z" fill="url(#paint6_linear_2613_31030)"/>
<path d="M28.2226 8.93816C26.8535 7.48312 24.4374 6.22138 22.875 6.24822L22.8535 6.97842C24.5287 7.13413 29.3126 11.0214 31.879 11.6227C30.8589 11.0804 29.2535 9.89923 28.2226 8.93816Z" fill="#FFBB01"/>
<path d="M33.2273 17.5288C33.9736 21.7382 33.9253 26.9892 39.2192 28.7611C38.8595 28.9114 38.5051 29.2658 38.3977 29.647C29.1414 28.6483 33.7266 17.0832 29.8447 11.6228C30.4622 11.9127 31.9011 12.2886 32.5454 12.3315C32.7118 12.8309 32.9535 14.8174 33.2273 17.5288Z" fill="#FFBB01"/>
<path d="M34.258 28.4389C30.1506 24.2134 33.1519 16.8362 30.2365 11.7839C28.7707 11.1879 28.0405 10.796 28.062 10.8013C33.4794 16.6644 26.0647 26.753 35.1278 29.2389C35.1278 29.2389 34.8539 28.9758 34.258 28.4389Z" fill="url(#paint7_linear_2613_31030)"/>
<path d="M17.2916 10.8013C17.399 10.8335 13.9789 12.3368 13.2164 12.31C13.05 12.8093 12.5023 14.855 12.2285 17.5717C12.8513 17.6308 14.2151 17.6308 14.9453 17.3892C14.7627 14.9248 16.9802 10.9838 17.2916 10.8013Z" fill="#DD5A79"/>
<path d="M17.2813 10.8069C16.9645 10.9948 14.7578 14.9894 14.9403 17.4109C14.5698 17.529 14.1296 17.5881 13.7 17.6096C13.5658 16.8525 14.1403 13.0512 15.0692 11.8002C15.7994 11.4995 16.594 11.1988 17.2813 10.8069Z" fill="#8E485F"/>
<path d="M15.0471 20.5089C14.9719 19.5263 14.8914 18.5062 14.9397 17.384C14.2149 17.6256 12.835 17.6095 12.2229 17.5666C11.4712 21.7062 11.3531 27.0538 6.26855 28.8042C6.62829 28.9384 6.85916 29.282 6.9558 29.6471C13.1786 30.1303 13.431 21.6256 13.7477 17.572C13.6887 21.5612 13.4524 26.925 10.2256 29.2391C15.2726 28.0418 15.3155 23.7464 15.0471 20.5089Z" fill="url(#paint8_linear_2613_31030)"/>
<path fill-rule="evenodd" clip-rule="evenodd" d="M7.79395 7.26861C15.504 -1.44549 30.108 -1.47233 37.6087 7.2525C36.959 7.16659 36.3792 7.08069 35.6007 7.15586C33.0235 4.76659 29.7698 3.11827 26.3228 2.46324C28.3953 5.38404 31.3429 9.8082 33.6785 12.031C29.7215 11.9075 26.6986 6.35586 22.8758 6.53304V5.37331C25.1201 5.51827 27.0315 6.97331 28.5617 8.51424C27.1872 6.74243 25.1899 5.18002 22.8758 5.03505V3.77868C25.1255 3.82163 26.6933 4.41223 27.8745 5.26592V5.26055L25.9148 2.38807C25.2382 2.27532 24.5564 2.20015 23.8691 2.1572C23.9228 3.76257 21.5067 3.76257 21.5604 2.1572C20.8678 2.19478 20.1859 2.27532 19.5148 2.38807C19.4772 2.44176 17.5604 5.24982 17.5228 5.30888C17.5335 5.29814 17.5496 5.29277 17.5604 5.28203V5.2874C18.7362 4.43371 20.3094 3.84311 22.559 3.79478V5.05116C20.245 5.19076 18.2476 6.75854 16.8731 8.53035C18.4087 6.98941 20.3201 5.53438 22.559 5.38941V6.54915C18.5 6.47935 15.7886 11.9129 11.751 12.0471C14.1886 9.71693 16.8517 5.62566 19.1013 2.46324C15.6543 3.11827 12.4007 4.76659 9.82348 7.15586C9.04495 7.08606 8.4275 7.15049 7.79395 7.26861ZM21.9792 2.22163C21.9846 3.17196 23.4342 3.17196 23.4396 2.22163C23.4342 1.26592 21.9846 1.26592 21.9792 2.22163Z" fill="#ECE8E7"/>
<path fill-rule="evenodd" clip-rule="evenodd" d="M12.0136 12.4014C12.0136 12.4014 12.572 12.4067 13.3559 12.2832C11.3747 17.4859 12.9478 26.8067 6.42435 28.8309C7.02569 29.0564 7.32099 29.8296 7.02569 30.3987C10.6391 32.149 15.1492 34.3396 18.7572 36.09C16.7492 32.5571 14.7841 29.4161 15.9653 25.1745C16.4324 23.9289 17.7747 23.0913 17.9411 23.145C18.1076 23.1987 17.1411 25.6846 17.1411 25.6846C17.5277 24.7987 19.7183 23.1504 20.5398 23.0108C20.5398 23.0108 21.3129 23.4618 21.3935 23.5208C21.4686 23.5799 21.5492 23.6819 21.2754 23.8215C16.7116 26.5007 15.9653 29.9638 18.2311 34.549C19.5787 36.8953 21.9948 42.9463 24.7868 38.6296C28.3035 33.3786 30.8217 27.5155 24.0512 23.8215C23.7774 23.6765 23.8525 23.5799 23.9331 23.5208C24.0136 23.4618 24.7921 22.9839 24.7921 22.9839C25.5814 23.1128 27.874 24.7611 28.266 25.6631C28.266 25.6631 27.2995 23.1772 27.466 23.1235C27.6324 23.0698 29.023 24.0041 29.4418 25.153C30.623 29.3732 28.6525 32.5463 26.6552 36.0685C30.0539 34.4202 35.1062 31.9665 38.3868 30.3772C38.0915 29.8027 38.3814 29.0349 38.9881 28.8041C32.4378 26.7638 34.027 17.4752 32.0405 12.2564C32.8244 12.3853 33.3827 12.3745 33.3827 12.3745C34.6015 17.9262 34.7411 24.8094 39.5733 28.5195V28.7235C39.7398 28.745 39.9009 28.8041 40.0405 28.89C42.376 23.7839 42.2472 17.5933 39.6968 12.5893C38.8431 12.8739 37.9572 11.9665 38.2686 11.1181C38.5854 10.0228 40.2821 10.1088 40.4968 11.2309C43.0525 15.7195 43.7559 21.7222 42.1827 26.7745C42.1881 26.7638 42.1935 26.7477 42.1988 26.7369C42.1505 26.8765 41.5492 28.4819 40.4324 30.4416C40.4324 30.4363 40.4378 30.4309 40.4378 30.4255C40.078 31.1128 39.0364 31.2202 38.5532 30.6188C35.1331 32.2779 29.6834 34.9249 26.3975 36.5195C24.0405 41.3624 21.5331 41.7544 18.9935 36.541C15.219 34.7047 10.7304 32.5302 6.84851 30.6457C6.51026 31.0537 5.87133 31.1665 5.41495 30.9034C1.0874 26.1517 1.79079 16.8094 4.91563 11.2363C5.06059 10.4953 5.97871 10.0873 6.62301 10.4846C7.37469 10.8873 7.38542 12.0631 6.63912 12.4765V12.4819C6.36529 12.6483 6.0163 12.6913 5.71026 12.6C3.15455 17.6148 3.04717 23.7947 5.36663 28.9168C5.50623 28.8309 5.66193 28.7772 5.82301 28.7557V28.5463C10.2257 25.6524 11.1009 17.0886 12.0136 12.4014ZM5.82301 29.1853C4.66865 29.4806 5.47938 31.1826 6.43509 30.4577C7.03106 30.0175 6.54247 29.0027 5.82301 29.1853ZM39.0794 29.2443C38.5317 29.5181 38.5854 30.3987 39.1868 30.5705C40.5398 30.898 40.3733 28.6859 39.0794 29.2443ZM6.53173 10.9463C5.62435 10.2 4.73307 11.8054 5.83911 12.192C6.55858 12.4282 7.11697 11.4349 6.53173 10.9463ZM38.8861 10.9517C38.3009 11.4349 38.8646 12.4336 39.5841 12.192C40.6901 11.7947 39.8096 10.2161 38.8861 10.9517Z" fill="#ECE8E7"/>
<path d="M23.9821 25.3248C23.0908 25.3892 22.7096 25.7812 22.7096 25.7812C21.7593 24.9275 20.009 25.3355 19.1338 26.7047C19.6546 27.451 21.4533 26.957 21.7539 26.7315C22.3177 27.204 23.1069 27.1986 23.6707 26.7315C23.9767 26.957 25.77 27.4456 26.2908 26.7047C25.7217 25.91 24.8304 25.2657 23.9821 25.3248Z" fill="#ECE8E7"/>
<path d="M24.1044 28.8255C24.0293 28.745 23.9058 28.6 23.8091 28.4873C23.7716 28.4443 23.7393 28.4067 23.7125 28.3745H21.7098C21.5971 28.4873 21.4253 28.6967 21.3125 28.8255C20.9044 31.9933 22.1232 31.8752 22.6709 34.6618C23.036 31.7946 24.5071 31.9611 24.1044 28.8255Z" fill="#ECE8E7"/>
<path d="M27.9975 14.227C27.6216 11.8968 25.2861 9.37329 22.6767 9.37329C22.6606 10.8498 22.7518 15.5156 22.5532 15.9021C22.2955 17.4753 22.0002 22.0981 22.6767 23.5317C23.2619 23.3975 23.6914 22.9303 23.8471 22.5008C24.2874 22.6297 24.7653 22.6673 25.0445 22.2646C25.1196 22.1626 25.1089 22.0713 24.9102 21.8028C24.5183 21.2176 24.0619 21.7921 23.6592 21.9102C23.6592 21.9102 23.5089 21.8887 23.5089 20.8364C23.5089 19.8646 23.5143 18.6995 23.5143 17.7169C23.4391 16.7075 23.6807 15.5693 24.2606 15.5478C24.6901 15.4565 26.9881 15.5102 27.8525 15.6552C27.9384 15.4673 28.121 14.925 27.9975 14.227Z" fill="#ECE8E7"/>
<path d="M28.7337 18.2216C28.9699 17.7652 29.1256 17.4538 29.131 17.4055C29.131 17.4055 27.9337 17.8618 27.3753 18.1034C26.8222 18.3397 26.4249 18.2162 26.0008 17.8887C25.684 17.6417 25.3565 17.2873 24.9538 17.3142C24.7927 17.4323 24.5618 17.6417 24.5565 17.6685C24.5135 18.2162 24.4008 19.6659 25.1256 20.3263C25.8504 21.1155 26.0169 22.2592 26.0706 23.1719C26.441 23.4028 26.79 23.741 26.79 23.741C26.79 23.6551 26.8008 23.5746 26.8222 23.4887C26.1672 23.2363 27.9122 19.8216 28.7337 18.2216Z" fill="#ECE8E7"/>
<path d="M20.444 21.8135C20.8466 21.2014 21.3889 21.8672 21.695 21.9208C21.695 21.9208 21.8453 21.8994 21.8453 20.847C21.6842 19.7947 22.3446 15.7893 21.0936 15.5584C20.6641 15.4672 18.5701 15.3437 17.4963 15.6497C16.5728 12.9974 19.7889 9.29803 22.6775 9.3732L22.7527 14.9839C22.7097 17.3732 21.9312 21.4484 22.6775 23.537C22.3017 23.494 21.7809 23.0215 21.6681 22.8497C21.5554 22.6779 21.55 22.5061 21.507 22.5061C21.4641 22.5061 21.0399 22.6349 20.8198 22.6027C20.5997 22.5705 20.3795 22.3719 20.3044 22.2698C20.2346 22.1678 20.2399 22.0819 20.444 21.8135Z" fill="#DDD3C0"/>
<path d="M21.7427 36.1918C21.3239 35.859 18.5642 33.2227 18.3924 32.3959C18.226 31.6012 18.3763 30.8174 18.3924 30.7314C17.9521 31.2039 17.7696 33.6898 18.183 34.4684C18.5535 35.059 19.1441 36.31 19.5843 37.0294C20.0246 36.9972 21.4743 36.8791 21.7481 36.8254C22.0595 36.761 22.1562 36.5247 21.7427 36.1918Z" fill="#250EF0"/>
<path d="M27.3968 32.6807C27.2894 31.2901 27.284 31.3223 26.9673 30.7317C26.978 30.7746 27.1391 31.5854 26.9673 32.3908C26.7901 33.2176 24.0303 35.8538 23.6169 36.1867C23.1981 36.5196 23.2948 36.7612 23.6169 36.8256C23.8854 36.8793 25.3672 36.9921 25.8128 37.0243C26.4034 36.1867 26.8867 35.1183 27.1498 34.5223C27.4129 33.9263 27.4021 33.631 27.3968 32.6807Z" fill="#250EF0"/>
<path d="M22.6774 0.347682V0.734259C15.8479 0.734259 9.96868 4.07386 6.14586 9.24433L5.77539 9.07788C9.58747 3.66043 16.0358 0.29936 22.6774 0.347682Z" fill="#2702FF"/>
<path d="M26.7472 17.3249C26.1458 17.2873 25.7002 16.7396 25.7002 16.7181C25.7002 16.6967 26.1942 16.3262 26.6076 16.251C27.1176 16.1705 27.6492 16.4712 28.0089 16.6161L27.9767 16.7235C27.7512 16.7557 27.4129 17.3571 26.7472 17.3249Z" fill="#071C50"/>
<path d="M25.6998 16.7236C26.3656 17.545 27.1602 17.4806 27.9119 16.745C28.0193 16.6913 28.1052 16.788 28.03 16.8954C26.3817 18.8981 25.9844 16.6591 24.7226 17.3464L24.6689 17.3142C25.732 16.1383 26.3173 15.3544 27.6971 16.2081C28.1642 16.4658 28.2555 16.5088 28.234 16.5947C27.8689 16.8739 27.0099 15.5853 25.6998 16.7236Z" fill="url(#paint9_linear_2613_31030)"/>
<path d="M27.8531 15.6496C28.4974 15.8537 29.0504 16.2403 29.3242 16.455C29.4101 16.745 29.4799 17.008 29.5121 17.2121L27.8906 17.0617C27.998 16.9436 28.1537 16.7718 27.9712 16.7288L28.0034 16.6215C28.143 16.6698 28.2128 16.659 28.2289 16.5946C28.2504 16.5087 28.1591 16.4658 27.692 16.208C26.7094 15.6443 26.0437 15.8161 25.2276 16.7396C24.943 17.1584 24.3524 17.4698 24.1591 17.8349C23.9927 17.7758 23.6866 17.7168 23.5094 17.7329C23.4343 16.7181 23.6759 15.5906 24.2557 15.5637C24.6853 15.4725 26.7792 15.3436 27.8531 15.6496Z" fill="url(#paint10_radial_2613_31030)"/>
<path d="M17.1206 16.5896C17.1367 16.6594 17.2119 16.6701 17.3676 16.6111L17.3783 16.7292C17.1958 16.7775 17.3569 16.944 17.4643 17.0621L15.8428 17.2124C15.8804 17.0084 15.9502 16.7453 16.0307 16.4554C17.2226 15.1453 20.0468 15.3762 21.0992 15.5587C21.679 15.5856 21.926 16.7185 21.8455 17.7279C21.6683 17.7117 21.3622 17.7708 21.1958 17.8299C20.9541 17.454 20.4173 17.1587 20.1273 16.7346C19.7032 16.1815 19.1233 15.9023 18.7367 15.8809C18.3555 15.8594 18.13 15.9399 17.6575 16.1977C17.1904 16.4607 17.0992 16.5037 17.1206 16.5896Z" fill="url(#paint11_radial_2613_31030)"/>
<path d="M20.7387 17.3464C20.975 17.5504 21.1414 17.6417 21.2059 17.8726C21.2918 18.1786 21.2166 20.8578 21.2166 20.8578C20.1965 20.6752 19.2998 22.2752 19.9602 22.737C20.0622 22.7961 19.5146 23.0269 19.2837 23.1719C19.1173 21.239 20.0783 20.831 20.7119 19.3867C20.8408 18.9142 20.7978 17.7007 20.7924 17.6685C20.7871 17.6417 20.3146 17.3303 20.1481 17.2122C20.3092 17.2175 20.6206 17.3303 20.6367 17.3518L20.7387 17.3464Z" fill="url(#paint12_linear_2613_31030)"/>
<path d="M20.7923 17.6684C21.1037 20.9597 19.4285 19.714 19.2782 23.1718C18.9077 23.4026 18.5587 23.7409 18.5587 23.7409C18.5587 23.655 18.548 23.5744 18.5265 23.4885C19.3748 23.1825 16.2285 17.5718 16.2178 17.4053C16.2178 17.4053 17.4205 17.8671 17.9681 18.0979C18.5211 18.3342 18.9184 18.2107 19.3426 17.8832C19.7668 17.5557 19.9869 17.3033 20.3896 17.3087C20.5614 17.4322 20.7869 17.6362 20.7923 17.6684Z" fill="#C8C090"/>
<path d="M18.7412 16.2563C19.1546 16.3315 19.6486 16.7019 19.6486 16.7234C19.6486 16.7449 19.2083 17.2925 18.6016 17.3301C17.9305 17.3623 17.5976 16.761 17.3721 16.7342L17.3613 16.616C17.7103 16.4657 18.2419 16.1758 18.7412 16.2563Z" fill="#071C50"/>
<path d="M19.3418 17.8832C19.766 17.5557 19.9861 17.3034 20.3888 17.3087C19.3955 16.7665 18.8962 18.7423 17.4519 17.0618L15.8304 17.2121C15.4707 19.5638 17.6076 21.3785 18.5257 23.4886C19.3741 23.1826 16.2277 17.5718 16.217 17.4054C16.217 17.4054 17.4197 17.8671 17.9673 18.098C18.5204 18.3343 18.9177 18.2108 19.3418 17.8832Z" fill="#05B5CC"/>
<path d="M17.3612 16.6108C17.2055 16.6698 17.1357 16.6591 17.1142 16.5893C17.0927 16.5034 17.184 16.4604 17.6511 16.2027C19.0739 15.3275 19.7879 16.3047 20.7652 17.3732L20.6309 17.3732C19.3853 16.6644 18.8591 18.9571 17.3182 16.8846C17.2431 16.7718 17.329 16.6806 17.4363 16.7342C18.1934 17.4752 18.988 17.5235 19.6484 16.7074C18.9504 16.0685 18.2202 16.1544 17.3612 16.6108Z" fill="url(#paint13_linear_2613_31030)"/>
<path d="M21.7214 40.0846C19.8744 40.192 18.2314 39.8377 16.8516 39.1934C18.4247 39.7088 20.0623 39.9826 21.7214 40.0846Z" fill="url(#paint14_linear_2613_31030)"/>
<path d="M27.1711 31.1126C27.1228 30.2751 27.1872 27.6603 26.2691 26.6885C25.7322 27.4402 23.9603 26.9247 23.665 26.7153C23.708 26.8871 23.8422 27.2415 24.4382 27.773C25.6355 28.9167 26.4301 29.8079 27.1711 31.1126Z" fill="#F7B41E"/>
<path d="M20.1482 27.0914C19.5308 27.0699 19.2891 26.7639 19.1818 26.635C18.269 27.6015 18.2261 30.286 18.1777 31.1129C18.9187 29.8082 19.7133 28.9115 20.9106 27.7733C21.5066 27.2364 21.716 26.8874 21.7589 26.7155C21.7375 26.7263 20.9589 27.1182 20.1482 27.0914Z" fill="url(#paint15_linear_2613_31030)"/>
<path d="M27.37 26.6026C26.7256 25.3999 24.3686 23.9449 24.0948 23.7999C23.821 23.6603 23.9015 23.5583 23.9767 23.4992C24.0572 23.4402 24.8304 22.9892 24.8304 22.9892C24.0304 22.7798 23.5149 23.9395 22.7042 23.9502C21.8612 23.9986 21.3351 22.7744 20.519 22.9892C20.519 22.9892 21.2921 23.4402 21.3726 23.4992C21.4532 23.5583 21.5284 23.6549 21.2545 23.7999C20.4653 24.2187 18.0223 25.9905 17.6143 27.3543L17.625 27.3596C18.6183 25.7596 21.0773 23.9449 22.6773 25.1315C24.2237 23.9341 26.7955 25.7972 27.7726 27.3543L27.7834 27.3489C27.6545 27.0966 27.5203 26.8442 27.37 26.6026Z" fill="url(#paint16_linear_2613_31030)"/>
<path d="M17.421 27.886C17.2706 29.1209 17.5874 33.5021 18.178 34.4686C17.174 32.6699 16.3632 29.5344 17.6142 27.3545L17.625 27.3599C17.5444 27.5317 17.4478 27.7035 17.421 27.886Z" fill="url(#paint17_linear_2613_31030)"/>
<path d="M27.2568 34.2428C27.7722 33.1368 28.2555 28.6375 27.7669 27.3596L27.7776 27.3542C28.9534 29.5395 28.1749 32.6697 27.1709 34.4683C27.2085 34.3932 27.2353 34.318 27.2568 34.2428Z" fill="#F9DB00"/>
<path d="M23.6433 36.165C27.2406 32.7502 28.7493 31.7623 24.4702 27.7462C23.8742 27.2093 23.7077 26.8818 23.6648 26.71C23.101 27.1824 22.3118 27.1771 21.748 26.71C21.7051 26.8818 21.5386 27.2147 20.9426 27.7462C19.8312 28.7878 19.1708 29.5824 18.4191 30.7046C18.4084 30.7475 18.2043 31.5959 18.3762 32.4066C18.548 33.2334 21.2379 35.8321 21.6514 36.165C22.0702 36.4979 22.0916 36.7395 21.7695 36.8039C21.501 36.8576 20.003 36.965 19.5574 36.9972C19.8581 37.6308 20.25 38.1516 20.5775 38.6348C23.101 37.765 22.2796 37.7972 24.7923 38.6616C25.1037 38.1569 25.4473 37.6361 25.8124 37.0241C25.3722 36.9918 23.9064 36.8576 23.6326 36.8039C23.3265 36.7341 23.2245 36.4979 23.6433 36.165ZM22.7091 35.714C22.054 34.5489 20.5668 32.4818 20.293 31.0751C20.1158 30.4039 20.9534 29.1583 21.1144 28.9972C21.6353 28.4764 21.8661 27.9288 22.7252 27.7892C23.5574 27.9234 23.7292 28.5462 24.3091 28.9972C26.1829 31.1985 23.7453 33.6683 22.7091 35.714Z" fill="#252842"/>
<path d="M23.4178 28.0848C22.838 27.4458 22.1561 27.8109 21.7051 28.3747C22.2044 28.3747 23.2084 28.3747 23.7078 28.3747C23.595 28.2566 23.5145 28.1868 23.4178 28.0848Z" fill="url(#paint18_linear_2613_31030)"/>
<path d="M25.0608 30.4791C24.7655 29.4214 24.4648 29.1744 24.0943 28.8093C24.5078 31.8697 23.0957 31.5315 22.6715 34.5006C22.2474 31.5315 20.9158 31.8644 21.3292 28.8093C18.8004 30.7315 21.6138 33.7919 22.6715 35.7462C23.3212 34.4791 25.3454 32.0093 25.0608 30.4791Z" fill="url(#paint19_linear_2613_31030)"/>
</g>
<path d="M52.7881 27.7668V14.1972H54.9602V25.8543H60.8843V27.7668H52.7881ZM67.1786 27.9845C66.1846 27.9845 65.3027 27.7601 64.5285 27.3114C63.7678 26.8494 63.1732 26.2319 62.7446 25.4545C62.316 24.6659 62.1005 23.7841 62.1005 22.8134C62.1005 21.8427 62.316 20.9365 62.7446 20.1724C63.1866 19.4082 63.7745 18.8063 64.5106 18.3687C65.2466 17.92 66.0813 17.6957 67.0126 17.6957C67.7598 17.6957 68.4285 17.8223 69.0187 18.0777C69.6089 18.3332 70.1048 18.6841 70.5087 19.135C70.9126 19.5726 71.22 20.0768 71.4287 20.6477C71.6486 21.2186 71.7608 21.825 71.7608 22.4691C71.7608 22.6268 71.7541 22.7912 71.7429 22.96C71.7316 23.1288 71.707 23.2888 71.6688 23.4331H63.7386V21.7939H70.4907L69.4967 22.5402C69.6201 21.9449 69.5774 21.4163 69.3687 20.9565C69.1713 20.4833 68.8661 20.1124 68.4487 19.8458C68.0448 19.566 67.5646 19.426 67.0126 19.426C66.4606 19.426 65.9691 19.566 65.5405 19.8458C65.1119 20.1124 64.7798 20.5011 64.5465 21.012C64.3131 21.5095 64.2211 22.1159 64.2705 22.8334C64.2099 23.502 64.3019 24.084 64.5465 24.5815C64.8045 25.0791 65.1591 25.4678 65.6146 25.7477C66.0813 26.0276 66.6087 26.1675 67.1966 26.1675C67.7845 26.1675 68.3074 26.0342 68.7247 25.7677C69.1533 25.5011 69.4922 25.1546 69.7368 24.7304L71.4287 25.55C71.2312 26.012 70.9261 26.4296 70.5087 26.8072C70.1048 27.1715 69.6133 27.4625 69.0366 27.6824C68.4712 27.889 67.8518 27.9911 67.1786 27.9911V27.9845ZM78.5915 27.9845C77.6355 27.9845 76.7581 27.7601 75.9593 27.3114C75.1739 26.8627 74.5478 26.2497 74.0833 25.4722C73.6166 24.6948 73.3832 23.8152 73.3832 22.8312C73.3832 21.8472 73.6166 20.9542 74.0833 20.1901C74.5501 19.4127 75.1739 18.8063 75.9593 18.3687C76.7447 17.92 77.6221 17.6957 78.5915 17.6957C79.5608 17.6957 80.4494 17.92 81.2236 18.3687C82.009 18.8063 82.6283 19.4127 83.0816 20.1901C83.5484 20.9542 83.7817 21.8361 83.7817 22.8312C83.7817 23.8263 83.5484 24.7126 83.0816 25.49C82.6149 26.2675 81.9888 26.8805 81.2057 27.3292C80.4203 27.7668 79.5496 27.9845 78.5937 27.9845H78.5915ZM78.5915 26.072C79.1794 26.072 79.7022 25.932 80.1555 25.6522C80.6088 25.3723 80.9656 24.9902 81.2236 24.5038C81.4929 24.0062 81.6275 23.4465 81.6275 22.829C81.6275 22.2115 81.4929 21.6561 81.2236 21.1719C80.9656 20.6855 80.611 20.3034 80.1555 20.0235C79.7022 19.7437 79.1794 19.6037 78.5915 19.6037C78.0035 19.6037 77.4942 19.7437 77.0274 20.0235C76.5741 20.3034 76.2106 20.6855 75.9413 21.1719C75.6833 21.6584 75.5554 22.2092 75.5554 22.829C75.5554 23.4487 75.6833 24.0062 75.9413 24.5038C76.2106 24.9902 76.5741 25.3723 77.0274 25.6522C77.4942 25.932 78.0148 26.072 78.5915 26.072ZM85.8103 27.7668V17.9133H87.7984V19.8436L87.5583 19.5882C87.8029 18.9684 88.1956 18.502 88.7364 18.1866C89.275 17.8578 89.901 17.6957 90.6124 17.6957C91.3237 17.6957 91.9991 17.8534 92.5624 18.1688C93.1256 18.4842 93.5677 18.9218 93.8863 19.4793C94.205 20.0369 94.3643 20.681 94.3643 21.4096V27.7668H92.3043V21.956C92.3043 21.4585 92.2123 21.0386 92.0283 20.6988C91.8443 20.3478 91.5818 20.0791 91.2362 19.8969C90.9041 19.7037 90.5249 19.6059 90.0963 19.6059C89.6677 19.6059 89.2795 19.7037 88.9361 19.8969C88.604 20.0791 88.3482 20.3456 88.1642 20.6988C87.9802 21.0497 87.8882 21.4696 87.8882 21.956V27.7668H85.808H85.8103ZM99.5725 27.9845C98.8971 27.9845 98.3024 27.869 97.7886 27.638C97.2859 27.3958 96.8932 27.0671 96.6105 26.654C96.3278 26.2297 96.1864 25.7321 96.1864 25.1613C96.1864 24.6282 96.3031 24.1462 96.5364 23.7219C96.781 23.2976 97.1558 22.9378 97.6584 22.6468C98.1611 22.3558 98.7939 22.1493 99.5546 22.0271L103.015 21.4629V23.0844L99.9607 23.6131C99.4087 23.7108 99.0048 23.8863 98.7467 24.1417C98.4887 24.3838 98.3608 24.6993 98.3608 25.088C98.3608 25.4767 98.5022 25.7743 98.7849 26.0165C99.0789 26.2475 99.4536 26.363 99.9069 26.363C100.47 26.363 100.962 26.2408 101.379 25.9987C101.808 25.7566 102.14 25.4345 102.373 25.0324C102.606 24.6193 102.723 24.1639 102.723 23.6664V21.1342C102.723 20.6477 102.539 20.2545 102.171 19.9502C101.814 19.6348 101.336 19.4771 100.735 19.4771C100.183 19.4771 99.6982 19.6237 99.2808 19.9147C98.8769 20.1946 98.5762 20.5589 98.3787 21.0075L96.6486 20.1524C96.8326 19.6659 97.1333 19.2417 97.5507 18.8774C97.9681 18.502 98.4528 18.2088 99.0048 18.0022C99.568 17.7956 100.165 17.6934 100.789 17.6934C101.574 17.6934 102.268 17.84 102.869 18.131C103.482 18.422 103.955 18.8285 104.285 19.3505C104.628 19.8614 104.801 20.4567 104.801 21.1364V27.7668H102.813V25.9809L103.237 26.0364C103.004 26.4363 102.703 26.7828 102.335 27.0738C101.978 27.3648 101.567 27.5891 101.103 27.7468C100.65 27.9045 100.14 27.9845 99.5748 27.9845H99.5725ZM107.229 27.7668V17.9133H109.217V19.8991L109.033 19.6082C109.253 18.964 109.61 18.5042 110.101 18.2243C110.593 17.9333 111.181 17.7867 111.867 17.7867H112.475V19.6637H111.611C110.925 19.6637 110.366 19.8769 109.937 20.3012C109.52 20.7143 109.311 21.3096 109.311 22.0871V27.769H107.231L107.229 27.7668ZM118.496 27.9845C117.54 27.9845 116.681 27.7601 115.92 27.3114C115.173 26.8494 114.576 26.2319 114.136 25.4545C113.707 24.677 113.492 23.8041 113.492 22.8312C113.492 21.8583 113.712 20.9853 114.154 20.2079C114.596 19.4305 115.191 18.8174 115.938 18.3687C116.685 17.92 117.533 17.6957 118.478 17.6957C119.275 17.6957 119.981 17.8534 120.594 18.1688C121.207 18.4842 121.691 18.9218 122.048 19.4793L121.736 19.9525V13.9773H123.796V27.7646H121.828V25.761L122.068 26.1431C121.725 26.7384 121.234 27.1937 120.596 27.5091C119.959 27.8245 119.259 27.9823 118.498 27.9823L118.496 27.9845ZM118.698 26.072C119.275 26.072 119.788 25.932 120.244 25.6522C120.711 25.3723 121.072 24.9902 121.33 24.5038C121.599 24.0062 121.734 23.4465 121.734 22.829C121.734 22.2115 121.599 21.6561 121.33 21.1719C121.072 20.6855 120.711 20.3034 120.244 20.0235C119.791 19.7437 119.275 19.6037 118.698 19.6037C118.121 19.6037 117.601 19.7437 117.134 20.0235C116.667 20.3034 116.306 20.6855 116.048 21.1719C115.79 21.6584 115.662 22.2092 115.662 22.829C115.662 23.4487 115.79 24.0062 116.048 24.5038C116.306 24.9902 116.66 25.3723 117.116 25.6522C117.583 25.932 118.11 26.072 118.698 26.072ZM131.026 27.9845C130.07 27.9845 129.193 27.7601 128.394 27.3114C127.609 26.8627 126.983 26.2497 126.518 25.4722C126.051 24.6948 125.818 23.8152 125.818 22.8312C125.818 21.8472 126.051 20.9542 126.518 20.1901C126.985 19.4127 127.609 18.8063 128.394 18.3687C129.179 17.92 130.057 17.6957 131.026 17.6957C131.996 17.6957 132.884 17.92 133.658 18.3687C134.444 18.8063 135.063 19.4127 135.516 20.1901C135.983 20.9542 136.217 21.8361 136.217 22.8312C136.217 23.8263 135.983 24.7126 135.516 25.49C135.05 26.2675 134.424 26.8805 133.64 27.3292C132.855 27.7668 131.984 27.9845 131.028 27.9845H131.026ZM131.026 26.072C131.614 26.072 132.137 25.932 132.59 25.6522C133.044 25.3723 133.4 24.9902 133.658 24.5038C133.928 24.0062 134.062 23.4465 134.062 22.829C134.062 22.2115 133.928 21.6561 133.658 21.1719C133.4 20.6855 133.046 20.3034 132.59 20.0235C132.137 19.7437 131.614 19.6037 131.026 19.6037C130.438 19.6037 129.929 19.7437 129.462 20.0235C129.009 20.3034 128.645 20.6855 128.376 21.1719C128.118 21.6584 127.99 22.2092 127.99 22.829C127.99 23.4487 128.118 24.0062 128.376 24.5038C128.645 24.9902 129.009 25.3723 129.462 25.6522C129.929 25.932 130.45 26.072 131.026 26.072ZM139.165 27.7668V25.3989H141.281V27.7668H139.165Z" fill="white"/>
<path d="M143.612 27.7666L148.432 14.197H151.118L155.938 27.7666H153.62L152.572 24.7257H146.996L145.927 27.7666H143.609H143.612ZM147.624 22.8132H151.912L149.484 15.7097H150.092L147.626 22.8132H147.624ZM157.365 27.7666V17.9132H159.445V27.7666H157.365ZM157.365 16.5649V14.197H159.445V16.5649H157.365Z" fill="url(#paint20_linear_2613_31030)"/>
<defs>
<linearGradient id="paint0_linear_2613_31030" x1="23.7294" y1="36.9331" x2="31.8959" y2="36.9331" gradientUnits="userSpaceOnUse">
<stop stop-color="#9D21A4"/>
<stop offset="0.5205" stop-color="#F51C90"/>
<stop offset="1" stop-color="#9801CA"/>
</linearGradient>
<linearGradient id="paint1_linear_2613_31030" x1="23.6484" y1="36.5974" x2="33.388" y2="36.5974" gradientUnits="userSpaceOnUse">
<stop stop-color="#9800CE"/>
<stop offset="0.4795" stop-color="#FF288B"/>
<stop offset="1" stop-color="#F84690"/>
</linearGradient>
<linearGradient id="paint2_linear_2613_31030" x1="23.6328" y1="39.6493" x2="28.5026" y2="39.6493" gradientUnits="userSpaceOnUse">
<stop stop-color="#F84690"/>
<stop offset="0.5205" stop-color="#FF288B"/>
<stop offset="1" stop-color="#9800CE"/>
</linearGradient>
<linearGradient id="paint3_linear_2613_31030" x1="13.4532" y1="36.9357" x2="21.6196" y2="36.9357" gradientUnits="userSpaceOnUse">
<stop stop-color="#9D21A4"/>
<stop offset="0.5205" stop-color="#F51C90"/>
<stop offset="1" stop-color="#9801CA"/>
</linearGradient>
<linearGradient id="paint4_linear_2613_31030" x1="11.9648" y1="36.6" x2="21.7044" y2="36.6" gradientUnits="userSpaceOnUse">
<stop stop-color="#F84690"/>
<stop offset="0.5205" stop-color="#FF288B"/>
<stop offset="1" stop-color="#9800CE"/>
</linearGradient>
<linearGradient id="paint5_linear_2613_31030" x1="25.8968" y1="31.7929" x2="26.9038" y2="17.0854" gradientUnits="userSpaceOnUse">
<stop stop-color="#F1D003"/>
<stop offset="0.5615" stop-color="#F4BB55"/>
<stop offset="0.9227" stop-color="#E4D494"/>
</linearGradient>
<linearGradient id="paint6_linear_2613_31030" x1="22.6767" y1="8.56665" x2="22.6767" y2="16.455" gradientUnits="userSpaceOnUse">
<stop stop-color="#FF7300"/>
<stop offset="0.9583" stop-color="#F7AA46"/>
<stop offset="1" stop-color="#F7AD49"/>
</linearGradient>
<linearGradient id="paint7_linear_2613_31030" x1="26.4279" y1="11.7438" x2="36.1735" y2="28.6355" gradientUnits="userSpaceOnUse">
<stop stop-color="#FF7300"/>
<stop offset="0.6811" stop-color="#FFB933"/>
<stop offset="1" stop-color="#FFDB4C"/>
</linearGradient>
<linearGradient id="paint8_linear_2613_31030" x1="8.86846" y1="29.585" x2="13.5145" y2="21.5322" gradientUnits="userSpaceOnUse">
<stop stop-color="#009BB6"/>
<stop offset="0.5615" stop-color="#2D6DB2"/>
<stop offset="0.9227" stop-color="#585CA4"/>
</linearGradient>
<linearGradient id="paint9_linear_2613_31030" x1="26.4529" y1="17.7113" x2="26.4529" y2="15.4483" gradientUnits="userSpaceOnUse">
<stop stop-color="#C7B299"/>
<stop offset="0.7226" stop-color="#F89B23"/>
</linearGradient>
<radialGradient id="paint10_radial_2613_31030" cx="0" cy="0" r="1" gradientUnits="userSpaceOnUse" gradientTransform="translate(24.5809 16.062) scale(6.14481 6.14051)">
<stop stop-color="#202646"/>
<stop offset="0.3492" stop-color="#0025C6"/>
<stop offset="0.8333" stop-color="#182948"/>
</radialGradient>
<radialGradient id="paint11_radial_2613_31030" cx="0" cy="0" r="1" gradientUnits="userSpaceOnUse" gradientTransform="translate(20.9437 16.5273) scale(4.81216 4.8088)">
<stop stop-color="#202646"/>
<stop offset="0.3492" stop-color="#0025C6"/>
<stop offset="0.8333" stop-color="#182948"/>
</radialGradient>
<linearGradient id="paint12_linear_2613_31030" x1="25.486" y1="6.21851" x2="19.6782" y2="22.1863" gradientUnits="userSpaceOnUse">
<stop stop-color="#F1D003"/>
<stop offset="0.6094" stop-color="#E65B42"/>
<stop offset="1" stop-color="#818E93"/>
</linearGradient>
<linearGradient id="paint13_linear_2613_31030" x1="15.907" y1="15.2987" x2="21.954" y2="18.6083" gradientUnits="userSpaceOnUse">
<stop stop-color="#F1D003"/>
<stop offset="0.5615" stop-color="#EB583F"/>
<stop offset="0.9227" stop-color="#848D73"/>
</linearGradient>
<linearGradient id="paint14_linear_2613_31030" x1="16.8516" y1="39.6485" x2="21.7214" y2="39.6485" gradientUnits="userSpaceOnUse">
<stop stop-color="#F84690"/>
<stop offset="0.5205" stop-color="#FF288B"/>
<stop offset="1" stop-color="#9800CE"/>
</linearGradient>
<linearGradient id="paint15_linear_2613_31030" x1="18.1778" y1="28.8739" x2="21.7171" y2="28.8739" gradientUnits="userSpaceOnUse">
<stop stop-color="#FF8F01"/>
<stop offset="0.5615" stop-color="#FF9800"/>
<stop offset="1" stop-color="#FFAF00"/>
</linearGradient>
<linearGradient id="paint16_linear_2613_31030" x1="17.5722" y1="25.1618" x2="27.7814" y2="25.1618" gradientUnits="userSpaceOnUse">
<stop stop-color="#FF7300"/>
<stop offset="0.6811" stop-color="#FFB933"/>
<stop offset="1" stop-color="#FFDB4C"/>
</linearGradient>
<linearGradient id="paint17_linear_2613_31030" x1="16.6124" y1="30.9115" x2="24.8191" y2="30.9115" gradientUnits="userSpaceOnUse">
<stop stop-color="#FF8F01"/>
<stop offset="0.5615" stop-color="#FF9800"/>
<stop offset="1" stop-color="#FFAF00"/>
</linearGradient>
<linearGradient id="paint18_linear_2613_31030" x1="20.1859" y1="28.0609" x2="25.5595" y2="28.0609" gradientUnits="userSpaceOnUse">
<stop stop-color="#FF7300"/>
<stop offset="0.6811" stop-color="#FFB933"/>
<stop offset="1" stop-color="#FFDB4C"/>
</linearGradient>
<linearGradient id="paint19_linear_2613_31030" x1="20.2219" y1="32.2778" x2="25.5049" y2="32.2778" gradientUnits="userSpaceOnUse">
<stop stop-color="#FF7300"/>
<stop offset="0.6811" stop-color="#FFB933"/>
<stop offset="1" stop-color="#FFDB4C"/>
</linearGradient>
<linearGradient id="paint20_linear_2613_31030" x1="140.513" y1="29.919" x2="162.544" y2="14.9512" gradientUnits="userSpaceOnUse">
<stop stop-color="#FA5560"/>
<stop offset="0.5" stop-color="#B14BF4"/>
<stop offset="1" stop-color="#4D91FF"/>
</linearGradient>
</defs>
</svg>
