<svg width="136" height="132" viewBox="0 0 136 132" fill="none" xmlns="http://www.w3.org/2000/svg">
<g id="logo container">
<path id="Vector" d="M79.5121 118.355L79.9394 119.236L79.9538 119.229C79.5505 120.038 77.4813 124.096 74.9976 127.241C73.8134 128.741 72.5363 130.032 71.3009 130.665L71.0416 130.851C71.0416 130.851 71.024 130.862 70.9872 130.879C70.9872 130.879 67.713 132.332 64.7156 130.879C64.6788 130.862 64.6612 130.851 64.6612 130.851L64.4019 130.665C63.1665 130.032 61.8894 128.74 60.7052 127.241C58.2231 124.096 56.1523 120.038 55.749 119.229L55.7634 119.236L56.1907 118.355L56.2563 118.319C56.762 119.271 57.2421 120.112 57.703 120.876C58.9048 122.879 59.9707 124.369 60.9805 126.005C60.9853 126.015 60.9933 126.024 60.9981 126.034H60.9997C62.5504 128.532 64.4435 129.851 64.4435 129.851C64.4435 129.851 65.3925 130.771 67.0056 130.923H67.0136C67.2745 130.948 67.5545 130.951 67.8506 130.927C68.1451 130.951 68.4251 130.947 68.6876 130.923H68.6956C70.3087 130.771 71.2577 129.851 71.2577 129.851C71.2577 129.851 73.1509 128.532 74.7016 126.034H74.7032C74.708 126.024 74.716 126.015 74.7208 126.005C75.7306 124.369 76.7964 122.879 77.9982 120.876C78.4591 120.11 78.9392 119.271 79.4449 118.319L79.5121 118.355Z" fill="#282E38"/>
<path id="Vector_2" d="M134.278 72.7424C134.63 73.0207 135.048 73.2206 135.502 73.3149C135.36 75.3315 135.13 77.3321 134.808 79.3135L134.477 79.2624C133.949 81.682 132.926 84.4454 131.735 87.1512C133.092 82.5343 133.96 77.7111 134.278 72.7424Z" fill="#282E38"/>
<path id="Vector_3" d="M134.477 79.2625L134.808 79.3136C133.952 84.6342 132.461 89.8236 130.343 94.8243C126.928 102.895 122.038 110.141 115.809 116.365C112.607 119.565 109.134 122.412 105.418 124.886C105.417 124.888 105.415 124.888 105.414 124.888C105.414 124.888 105.412 124.888 105.412 124.889C104.001 125.505 102.788 125.953 101.837 126.089C101.848 126.077 101.979 125.959 103.407 124.653C116.907 116.097 127.128 102.82 131.731 87.1641C131.732 87.1593 131.732 87.1577 131.734 87.1561C131.736 87.1529 131.736 87.1513 131.736 87.1513C132.926 84.4455 133.95 81.682 134.477 79.2625Z" fill="#282E38"/>
<path id="Vector_4" d="M131.732 87.1638C127.13 102.82 116.908 116.097 103.408 124.652C104.397 123.749 106.012 122.271 108.643 119.863C110.44 118.526 112.208 116.928 113.66 115.27C118.838 110.53 122.948 104.547 125.931 99.3193C129.596 92.9018 131.564 87.6228 131.726 87.1798C131.727 87.1734 131.731 87.1686 131.732 87.1638Z" fill="#282E38"/>
<path id="Vector_5" d="M131.724 87.1814C131.563 87.6244 129.594 92.9033 125.93 99.3209C126.253 98.7596 126.424 98.1391 126.435 97.5074V97.5058C127.845 95.0559 129.966 91.1826 131.724 87.1814Z" fill="#282E38"/>
<path id="Vector_6" d="M134.278 72.7421C133.96 77.7108 133.093 82.534 131.736 87.1509C131.736 87.1509 131.736 87.1525 131.734 87.1557C131.732 87.1573 131.732 87.1605 131.731 87.1637C131.729 87.1685 131.726 87.1733 131.724 87.1797C129.964 91.1809 127.844 95.0542 126.435 97.5041C126.443 97.1523 126.4 96.7973 126.307 96.4471C126.058 95.5163 125.478 94.7327 124.665 94.2226C124.859 93.7908 125.049 93.3574 125.235 92.9192C128.48 85.2511 130.126 77.1015 130.126 68.6978C130.126 60.294 128.479 52.146 125.235 44.4763C124.707 43.2305 124.142 42.0055 123.537 40.8029C123.819 40.7197 124.088 40.603 124.344 40.4543C125.219 39.9489 125.848 39.1317 126.109 38.1562C126.269 37.5613 126.282 36.9488 126.15 36.3635C131.34 45.7444 134.328 56.5007 134.413 67.9349" fill="#282E38"/>
<path id="Vector_7" d="M124.665 94.2246C125.478 94.7332 126.059 95.5168 126.307 96.4491C126.402 96.7993 126.445 97.1543 126.435 97.5062V97.5078C125.504 99.1262 124.885 100.122 124.885 100.122L124.469 100.746C124.469 100.746 124.467 100.746 124.467 100.748C123.918 101.048 123.294 101.215 122.646 101.215C122.132 101.215 121.625 101.109 121.154 100.908C121.399 100.503 121.638 100.098 121.873 99.6891C121.886 99.6939 121.9 99.6987 121.913 99.7019C121.95 99.7147 121.985 99.7259 122.023 99.7355C122.028 99.7387 122.036 99.7402 122.042 99.7402C122.089 99.7514 122.137 99.7626 122.183 99.7706C122.186 99.7738 122.19 99.7738 122.195 99.7738C122.233 99.7818 122.271 99.7882 122.31 99.793C122.358 99.7994 122.404 99.8058 122.451 99.809C122.473 99.8122 122.497 99.8138 122.519 99.8138C122.559 99.8154 122.603 99.817 122.643 99.817C123.468 99.8186 124.272 99.39 124.713 98.624C124.753 98.5536 124.792 98.4817 124.824 98.4081C124.856 98.3361 124.885 98.2626 124.91 98.1874C124.926 98.1378 124.941 98.0883 124.955 98.0371C125.035 97.7348 125.053 97.4246 125.014 97.1224C125.009 97.0712 125 97.02 124.989 96.9704C124.989 96.9704 124.989 96.9704 124.989 96.9688C124.982 96.9257 124.973 96.8841 124.96 96.8409C124.957 96.8281 124.955 96.8137 124.95 96.8009C124.939 96.7577 124.925 96.7162 124.912 96.673C124.896 96.6234 124.878 96.577 124.859 96.5291C124.843 96.4843 124.822 96.4411 124.801 96.3979C124.8 96.3931 124.797 96.3899 124.797 96.3851C124.774 96.3388 124.752 96.294 124.725 96.2508C124.701 96.2076 124.675 96.1644 124.648 96.1229C124.646 96.1213 124.645 96.1197 124.645 96.1197C124.617 96.0765 124.585 96.0333 124.555 95.9917C124.529 95.9581 124.505 95.9262 124.477 95.8942C124.457 95.8702 124.437 95.8446 124.414 95.8222C124.401 95.8062 124.387 95.7918 124.373 95.7758C124.349 95.7486 124.323 95.7247 124.296 95.7007C124.291 95.6959 124.288 95.6911 124.283 95.6879C124.267 95.6719 124.249 95.6575 124.233 95.6415C124.233 95.6415 124.233 95.6415 124.232 95.6399C124.216 95.6239 124.198 95.6111 124.18 95.5967C124.145 95.5663 124.108 95.5375 124.07 95.5104C124.068 95.5072 124.068 95.5072 124.067 95.5088V95.5072C124.272 95.0834 124.472 94.6548 124.665 94.2246Z" fill="#282E38"/>
<path id="Vector_8" d="M124.884 100.12C124.884 100.12 125.503 99.1242 126.435 97.5059C126.424 98.1375 126.252 98.758 125.929 99.3193C125.579 99.9269 125.068 100.415 124.47 100.744L124.884 100.12Z" fill="#282E38"/>
<path id="Vector_9" d="M125.929 99.3193C122.948 104.547 118.837 110.53 113.658 115.27C118.149 110.141 123.001 102.94 123.001 102.94L124.467 100.746C124.467 100.744 124.468 100.744 124.468 100.744C125.068 100.416 125.579 99.9286 125.929 99.3193Z" fill="#282E38"/>
<path id="Vector_10" d="M124.542 94.149C124.584 94.173 124.625 94.1986 124.665 94.2226C124.472 94.6528 124.272 95.0829 124.068 95.5067C124.065 95.5035 124.064 95.5019 124.062 95.5019C124.046 95.4875 124.028 95.4763 124.011 95.4635C123.995 95.4507 123.977 95.4395 123.96 95.4283C123.923 95.4028 123.884 95.3788 123.844 95.3564C123.795 95.3292 123.747 95.302 123.697 95.2796C123.66 95.2604 123.624 95.2428 123.585 95.2284C123.528 95.2029 123.468 95.1805 123.409 95.1613C123.385 95.1533 123.361 95.1453 123.337 95.1389C123.329 95.1341 123.321 95.1325 123.313 95.1325C123.286 95.1229 123.259 95.1165 123.23 95.1101C123.201 95.1005 123.169 95.0941 123.139 95.0893V93.6709C123.63 93.7381 124.108 93.8996 124.542 94.149Z" fill="#282E38"/>
<path id="Vector_11" d="M123.138 93.5193V93.6725C123.097 93.6677 123.054 93.6629 123.011 93.6581L123.138 93.5193Z" fill="#282E38"/>
<path id="Vector_12" d="M123.139 92.9961C122.923 92.8153 122.588 92.5259 122.159 92.1373V41.3835L122.431 40.9645C122.438 40.9645 122.447 40.9645 122.454 40.9645C122.682 40.9645 122.915 40.9437 123.139 40.9021V92.9961Z" fill="#282E38"/>
<path id="Vector_13" d="M122.159 92.1375C122.586 92.526 122.922 92.8155 123.138 92.9962V93.5207L123.01 93.6598C122.892 93.6486 122.772 93.6438 122.65 93.6438C122.485 93.6438 122.32 93.655 122.157 93.6758V92.1375H122.159Z" fill="#282E38"/>
<path id="Vector_14" d="M122.647 101.213C123.295 101.213 123.918 101.046 124.468 100.746L123.002 102.94C123.002 102.94 118.149 110.141 113.66 115.27C111.672 117.09 110.018 118.604 108.643 119.863C104.9 122.648 101.033 124.305 99.6475 123.035C99.7643 122.748 99.9083 122.378 100.068 121.974H100.07C104.349 119.388 108.304 116.287 111.888 112.703C112.284 112.308 112.674 111.907 113.06 111.5C113.065 111.494 113.073 111.486 113.079 111.48C113.21 111.344 113.34 111.208 113.463 111.072C113.476 111.059 113.489 111.045 113.5 111.034C116.408 107.909 118.968 104.523 121.157 100.906C121.626 101.107 122.133 101.213 122.647 101.213Z" fill="#282E38"/>
<path id="Vector_15" d="M121.276 39.7107L120.725 40.5471C120.085 40.2193 119.539 39.7123 119.17 39.0727C119.082 38.9207 119.005 38.764 118.941 38.6041C118.811 38.2875 118.728 37.9564 118.691 37.6254C118.626 37.0737 118.685 36.5171 118.854 35.9958C118.957 35.6872 119.098 35.3897 119.277 35.113C119.439 34.8652 119.627 34.6349 119.848 34.4302C120.059 34.2303 120.296 34.0528 120.557 33.9025C121.132 33.5698 121.786 33.3955 122.449 33.3955C122.698 33.3955 122.943 33.4211 123.183 33.4675C123.871 33.605 124.508 33.9296 125.02 34.4014C125.299 34.6557 125.539 34.9531 125.733 35.289C125.733 35.2906 125.734 35.2906 125.734 35.2922C125.929 35.6312 126.072 35.9942 126.152 36.3652C126.153 36.3668 126.153 36.3684 126.153 36.3684C126.283 36.9537 126.27 37.5662 126.112 38.1611C125.851 39.1366 125.222 39.9538 124.347 40.4592C124.091 40.6079 123.82 40.723 123.54 40.8078C123.411 40.8462 123.276 40.8798 123.142 40.9037C122.916 40.9453 122.686 40.9661 122.457 40.9661C122.45 40.9661 122.441 40.9661 122.434 40.9661L122.498 40.8654L121.276 39.7107ZM120.293 38.2043C120.301 38.2235 120.309 38.2427 120.32 38.2603C120.338 38.2987 120.359 38.3354 120.381 38.3738C120.428 38.4554 120.479 38.5321 120.533 38.6041C120.551 38.6281 120.57 38.6521 120.589 38.6761C120.608 38.7032 120.629 38.7272 120.653 38.7528C120.72 38.8328 120.796 38.9063 120.874 38.9751C120.893 38.9927 120.912 39.0103 120.935 39.0247C120.948 39.0375 120.962 39.0471 120.975 39.0567C120.988 39.0663 120.999 39.0759 121.012 39.0855C121.024 39.0951 121.037 39.1047 121.05 39.1126C121.055 39.1174 121.06 39.1206 121.066 39.1238C121.095 39.1446 121.125 39.1654 121.156 39.1846C121.224 39.231 121.295 39.271 121.368 39.3061C121.397 39.3221 121.429 39.3365 121.46 39.3509C121.577 39.4037 121.695 39.4469 121.817 39.4805C121.829 39.4837 121.841 39.4853 121.852 39.4885C121.863 39.4917 121.874 39.4933 121.887 39.4965C121.911 39.5028 121.935 39.5076 121.957 39.5124C121.985 39.5188 122.013 39.5252 122.041 39.5284C122.045 39.53 122.047 39.53 122.05 39.53C122.087 39.5364 122.124 39.5428 122.161 39.546C122.207 39.5508 122.253 39.5556 122.3 39.5588C122.349 39.5636 122.397 39.5636 122.449 39.5636C122.487 39.5636 122.527 39.5636 122.566 39.5604C122.593 39.5588 122.622 39.5572 122.649 39.5556C122.666 39.5556 122.686 39.5524 122.702 39.5508C122.726 39.5492 122.75 39.546 122.774 39.5428C122.81 39.538 122.846 39.5332 122.879 39.5268C122.926 39.5204 122.972 39.5108 123.017 39.498C123.057 39.4885 123.098 39.4789 123.137 39.4645C123.138 39.4661 123.138 39.4661 123.14 39.4661V39.4645H123.142C123.151 39.4613 123.161 39.4597 123.17 39.4549C123.204 39.4453 123.236 39.4341 123.268 39.4213C123.306 39.4085 123.343 39.3941 123.382 39.3765C123.471 39.3397 123.559 39.2966 123.646 39.247C124.788 38.5865 125.18 37.128 124.52 35.9862C124.299 35.604 123.987 35.3034 123.628 35.1035C122.916 34.7005 122.015 34.6749 121.256 35.113C121.215 35.137 121.173 35.1626 121.133 35.1882C121.074 35.2266 121.016 35.2682 120.964 35.3129C120.932 35.3369 120.901 35.3625 120.871 35.3881C120.866 35.3929 120.86 35.3977 120.855 35.4025C120.816 35.4361 120.78 35.4713 120.744 35.508C120.719 35.5336 120.695 35.5592 120.672 35.5864C120.656 35.6024 120.64 35.6216 120.626 35.6392C120.6 35.668 120.576 35.6984 120.554 35.7271C120.512 35.7799 120.472 35.8359 120.437 35.8935C120.415 35.9254 120.396 35.959 120.376 35.9926C120.343 36.0486 120.314 36.1061 120.285 36.1653C120.267 36.2037 120.25 36.2437 120.235 36.2821C120.213 36.3364 120.192 36.3924 120.175 36.4484C120.165 36.4756 120.157 36.5028 120.149 36.5315C120.143 36.5555 120.135 36.5811 120.13 36.6035C120.128 36.6067 120.128 36.6083 120.128 36.6083C120.119 36.6467 120.109 36.6867 120.101 36.725C120.096 36.7554 120.09 36.7858 120.087 36.8146C120.082 36.8402 120.079 36.8642 120.075 36.8898C120.069 36.9361 120.064 36.9809 120.063 37.0273C120.058 37.0769 120.058 37.128 120.058 37.1776C120.058 37.216 120.058 37.2544 120.061 37.2944C120.063 37.3311 120.066 37.3663 120.069 37.4015C120.072 37.4367 120.074 37.4703 120.08 37.5054C120.085 37.5454 120.091 37.587 120.101 37.6254C120.104 37.6446 120.106 37.6638 120.112 37.6814C120.115 37.7053 120.12 37.7277 120.128 37.7501C120.133 37.7693 120.138 37.7885 120.144 37.8093C120.152 37.8445 120.162 37.8797 120.175 37.9132C120.181 37.9388 120.191 37.9628 120.2 37.9868C120.227 38.0604 120.258 38.1323 120.293 38.2043Z" fill="#282E38"/>
<path id="Vector_16" d="M122.159 40.9516C121.654 40.9132 121.166 40.7725 120.726 40.547L121.276 39.7107L122.494 40.8637L122.43 40.9644C122.339 40.9644 122.249 40.9596 122.159 40.9516Z" fill="#282E38"/>
<path id="Vector_17" d="M122.159 40.9519C122.249 40.9599 122.34 40.9647 122.431 40.9647L122.159 41.3837V40.9519Z" fill="#282E38"/>
<path id="Vector_18" d="M122.159 94.0613C122.31 94.0773 122.46 94.0901 122.612 94.0997L122.159 94.6002V94.0613Z" fill="#282E38"/>
<path id="Vector_19" d="M122.159 93.6741C122.321 93.6533 122.487 93.6421 122.652 93.6421C122.772 93.6421 122.892 93.6469 123.012 93.6581L122.614 94.0994C122.462 94.0898 122.31 94.0771 122.161 94.0611V93.6741H122.159Z" fill="#282E38"/>
<path id="Vector_20" d="M122.37 95.0574C122.345 95.0606 122.321 95.0622 122.295 95.0686C122.284 95.0686 122.273 95.0702 122.262 95.0734C122.228 95.0782 122.193 95.083 122.159 95.091V94.6001L122.612 94.0996L123.011 93.6582C123.052 93.663 123.095 93.6678 123.139 93.6726V95.0926C123.137 95.091 123.135 95.091 123.134 95.091C123.105 95.0846 123.073 95.0782 123.043 95.075C123.028 95.0702 123.015 95.0686 123.001 95.0686C122.974 95.0638 122.943 95.059 122.916 95.0558C122.897 95.0526 122.878 95.051 122.855 95.051C122.83 95.0478 122.806 95.0462 122.782 95.0462C122.738 95.0431 122.694 95.0414 122.649 95.0414C122.598 95.0414 122.546 95.0431 122.497 95.0462C122.454 95.0478 122.412 95.051 122.37 95.0574Z" fill="#282E38"/>
<path id="Vector_21" d="M120.725 40.5471C121.166 40.7742 121.654 40.9133 122.159 40.9517V41.3835L107.398 64.2776C107.14 63.0846 106.905 61.906 106.688 60.7482L120.314 41.1692L120.725 40.5471Z" fill="#282E38"/>
<path id="Vector_22" d="M122.159 93.6741C121.831 93.7173 121.514 93.802 121.213 93.9252C112.906 92.3836 107.577 82.3678 106.314 78.2194C104.967 73.7976 103.139 67.4504 102.112 57.1947C102.109 57.1628 102.105 57.1292 102.102 57.0972C101.203 48.2088 99.0088 41.3387 98.4551 39.7107C101.02 40.1249 102.85 40.0961 102.85 40.0961C102.85 40.0961 103.074 41.1692 104.453 47.9642C105.138 51.3433 105.761 55.8386 106.687 60.7482L104.823 63.4284L106.748 65.2867L107.398 64.2776C108.241 68.2036 109.32 72.2768 110.803 76.1677C113.757 83.9142 119.6 89.8104 122.157 92.1373V93.6741H122.159Z" fill="#282E38"/>
<path id="Vector_23" d="M121.214 93.9268C121.515 93.8037 121.832 93.719 122.16 93.6758V94.0628C121.84 94.0292 121.526 93.9828 121.214 93.9268Z" fill="#282E38"/>
<path id="Vector_24" d="M121.213 93.927C121.525 93.9846 121.841 94.0309 122.159 94.0629V94.6018L121.49 95.339C121.49 95.3406 121.489 95.3406 121.489 95.3406C121.442 95.3662 121.396 95.3918 121.353 95.4222C121.309 95.4494 121.266 95.4798 121.225 95.5117C121.181 95.5421 121.141 95.5757 121.1 95.6109C121.06 95.6445 121.018 95.6812 120.981 95.718C120.956 95.742 120.932 95.766 120.911 95.79C120.785 95.9211 120.674 96.0698 120.58 96.2329C120.552 96.2793 120.528 96.3273 120.506 96.3737C120.487 96.4104 120.469 96.4456 120.456 96.4824V96.484C120.453 96.4856 120.453 96.4872 120.453 96.4888L120.394 96.5512C119.92 96.58 119.44 96.5896 118.957 96.5768C119.04 96.2186 119.175 95.8683 119.368 95.5341C119.792 94.8001 120.45 94.2404 121.213 93.927Z" fill="#282E38"/>
<path id="Vector_25" d="M121.454 99.4953C121.5 99.5225 121.547 99.5465 121.593 99.5688C121.596 99.5704 121.598 99.5721 121.6 99.5721C121.648 99.596 121.694 99.6168 121.74 99.636C121.784 99.6536 121.829 99.6712 121.873 99.6856C121.638 100.095 121.4 100.501 121.155 100.904C121.017 100.847 120.883 100.779 120.753 100.704C120.372 100.485 120.046 100.21 119.775 99.8951L121.105 99.249C121.132 99.273 121.158 99.2954 121.187 99.3162C121.224 99.3434 121.259 99.369 121.296 99.3961C121.307 99.4025 121.32 99.4121 121.332 99.4201C121.372 99.4473 121.414 99.4713 121.454 99.4953Z" fill="#282E38"/>
<path id="Vector_26" d="M121.49 95.339L122.159 94.6018V95.0927C122.132 95.0975 122.102 95.1039 122.073 95.1119C122.054 95.1167 122.034 95.1215 122.012 95.1279C121.974 95.1375 121.937 95.1487 121.9 95.1615C121.897 95.1631 121.895 95.1631 121.893 95.1647C121.844 95.1807 121.797 95.1983 121.749 95.2175C121.716 95.2303 121.684 95.2447 121.65 95.2606C121.623 95.2718 121.596 95.2862 121.569 95.299C121.546 95.3102 121.522 95.3214 121.501 95.3342C121.497 95.3358 121.495 95.3374 121.49 95.339Z" fill="#282E38"/>
<path id="Vector_27" d="M120.494 98.4607C120.499 98.4735 120.507 98.4863 120.514 98.4991C120.53 98.5359 120.549 98.571 120.57 98.6046C120.57 98.6046 120.57 98.6046 120.571 98.6062C120.59 98.643 120.611 98.6782 120.635 98.7118C120.643 98.7278 120.653 98.7421 120.664 98.7581C120.682 98.7853 120.701 98.8125 120.722 98.8397C120.783 98.9228 120.85 99.0044 120.925 99.0812C120.936 99.094 120.947 99.1051 120.96 99.1179C120.971 99.1307 120.984 99.1419 120.997 99.1531C121.003 99.1595 121.011 99.1675 121.018 99.1707C121.047 99.1995 121.077 99.2267 121.107 99.2507L119.778 99.8967C119.562 99.6441 119.381 99.3658 119.238 99.07L120.494 98.4607Z" fill="#282E38"/>
<path id="Vector_28" d="M121.489 95.3406L120.455 96.484C120.469 96.4472 120.485 96.412 120.505 96.3752C120.527 96.3272 120.553 96.2809 120.578 96.2345C120.673 96.0714 120.783 95.9227 120.91 95.7915C120.93 95.7659 120.954 95.742 120.98 95.7196C121.018 95.6812 121.058 95.646 121.098 95.6124C121.138 95.5773 121.18 95.5437 121.223 95.5133C121.265 95.4813 121.308 95.4525 121.351 95.4237C121.396 95.3918 121.442 95.3662 121.489 95.3406Z" fill="#282E38"/>
<path id="Vector_29" d="M120.438 35.8918C120.418 35.9237 120.397 35.9571 120.378 35.9905C120.395 35.9571 120.416 35.9237 120.438 35.8918Z" fill="#282E38"/>
<path id="Vector_30" d="M118.957 96.5784C119.44 96.5912 119.919 96.5832 120.394 96.5528L120.453 96.4905C120.439 96.5209 120.426 96.5528 120.415 96.5848C120.41 96.5928 120.407 96.6008 120.405 96.612C120.401 96.628 120.394 96.6408 120.389 96.6568V96.6584C120.385 96.6744 120.378 96.6872 120.373 96.7032C120.359 96.7447 120.346 96.7879 120.335 96.8327C120.322 96.8791 120.313 96.9254 120.305 96.9718C120.295 97.0166 120.289 97.0614 120.282 97.1061C120.277 97.1301 120.276 97.1525 120.274 97.1765C120.273 97.1845 120.271 97.1925 120.271 97.2021C120.266 97.2357 120.266 97.2677 120.265 97.3012C120.257 97.4388 120.26 97.5747 120.277 97.7106C120.281 97.7346 120.282 97.7586 120.287 97.7826C120.292 97.8098 120.295 97.8353 120.301 97.8625C120.305 97.8865 120.309 97.9105 120.316 97.9329C120.317 97.9489 120.321 97.9633 120.325 97.9793C120.333 98.0144 120.341 98.048 120.353 98.0832C120.362 98.12 120.373 98.1552 120.386 98.1904C120.402 98.2383 120.418 98.2847 120.437 98.3295C120.453 98.3679 120.469 98.4062 120.487 98.4446C120.49 98.451 120.492 98.4574 120.495 98.4638L119.239 99.0731C118.871 98.3039 118.764 97.4228 118.957 96.5784Z" fill="#282E38"/>
<path id="Vector_31" d="M119.239 99.0701C119.379 99.3643 119.56 99.6426 119.778 99.8969L105.565 106.797C105.709 106.359 105.852 105.926 105.993 105.502L119.239 99.0701Z" fill="#282E38"/>
<path id="Vector_32" d="M115.425 23.1255C116.952 24.9486 121.255 30.1828 123.18 33.4659C122.942 33.4195 122.695 33.394 122.446 33.394C121.785 33.394 121.13 33.5683 120.554 33.9009C120.293 34.0512 120.057 34.2287 119.845 34.4286C117.542 30.944 114.883 27.6896 111.885 24.6943C111.295 24.1042 110.695 23.5285 110.085 22.9672C112.052 22.7737 113.971 22.9208 115.425 23.1255Z" fill="#282E38"/>
<path id="Vector_33" d="M88.9707 20.5701L119.277 35.1132C119.098 35.3883 118.957 35.6857 118.855 35.996L90.515 22.3964C90.0253 21.7759 89.5132 21.1666 88.9707 20.5701Z" fill="#282E38"/>
<path id="Vector_34" d="M118.69 37.6255C118.728 37.9565 118.81 38.286 118.94 38.6042H103.415C103.175 38.3867 102.821 38.0589 102.378 37.6255H118.69Z" fill="#282E38"/>
<path id="Vector_35" d="M118.639 23.519L116.674 23.2791C111.868 18.0913 106.246 13.6711 100.013 10.22L101.074 9.33887C106.452 12.3598 111.389 16.1019 115.809 20.5189C116.787 21.496 117.73 22.4955 118.639 23.519Z" fill="#282E38"/>
<path id="Vector_36" d="M135.666 67.4346C135.54 58.6422 133.75 50.1104 130.343 42.0633C127.463 35.2571 123.534 29.0346 118.637 23.5189L116.672 23.2791C116.693 23.2998 116.71 23.319 116.731 23.3398C119.858 26.7205 122.641 30.4259 125.018 34.3983C125.296 34.6526 125.536 34.95 125.73 35.2858C125.73 35.2874 125.731 35.2874 125.731 35.289C125.926 35.6281 126.069 35.9911 126.149 36.3621C126.151 36.3637 126.151 36.3653 126.151 36.3653C131.34 45.7462 134.328 56.5024 134.413 67.9367C134.416 68.1046 134.416 68.2741 134.416 68.4421C134.416 69.5583 134.389 70.6681 134.333 71.7716C134.319 72.0962 134.301 72.4177 134.28 72.7407C134.632 73.019 135.05 73.2189 135.504 73.3132C135.536 72.8559 135.565 72.3985 135.588 71.9379C135.647 70.7785 135.676 69.6127 135.676 68.4421C135.674 68.1078 135.672 67.7704 135.666 67.4346Z" fill="#282E38"/>
<path id="Vector_37" d="M115.425 23.1255L116.673 23.279C116.694 23.2998 116.711 23.319 116.732 23.3398C116.361 23.2694 115.919 23.1943 115.425 23.1255Z" fill="#282E38"/>
<path id="Vector_38" d="M115.425 23.1255C115.919 23.1943 116.361 23.2694 116.731 23.3414C119.858 26.7221 122.641 30.4274 125.017 34.3998C124.505 33.9281 123.868 33.6034 123.18 33.4659C121.255 30.1828 116.952 24.947 115.425 23.1255Z" fill="#282E38"/>
<path id="Vector_39" d="M111.887 112.703C108.302 116.285 104.348 119.388 100.068 121.974C100.457 120.987 100.929 119.781 101.24 118.985C101.24 118.985 108.862 115.772 113.057 111.5C112.672 111.907 112.282 112.308 111.887 112.703Z" fill="#282E38"/>
<path id="Vector_40" d="M108.642 119.862C110.016 118.602 111.671 117.09 113.658 115.27C112.207 116.928 110.439 118.526 108.642 119.862Z" fill="#282E38"/>
<path id="Vector_41" d="M108.4 98.0272C108.4 98.0272 107.335 101.401 105.991 105.5L103.351 106.781C104.552 102.769 105.265 99.2026 105.545 97.6689C107.18 97.968 108.4 98.0272 108.4 98.0272Z" fill="#282E38"/>
<path id="Vector_42" d="M107.398 64.2776L106.748 65.2866L104.823 63.4284L106.688 60.7483C106.905 61.9061 107.14 63.0846 107.398 64.2776Z" fill="#282E38"/>
<path id="Vector_43" d="M103.351 106.783L105.991 105.502C105.852 105.927 105.708 106.361 105.564 106.797L102.952 108.064C103.091 107.632 103.224 107.205 103.351 106.783Z" fill="#282E38"/>
<path id="Vector_44" d="M100.618 96.1243C100.968 96.2874 101.319 96.4425 101.664 96.5848C102.972 97.1174 104.367 97.4564 105.545 97.6723C105.264 99.2059 104.551 102.771 103.351 106.785L98.3262 109.223C99.336 104.322 100.303 98.176 100.618 96.1243Z" fill="#282E38"/>
<path id="Vector_45" d="M103.416 38.6042H102.035V37.6255H102.379C102.821 38.0589 103.175 38.3851 103.416 38.6042Z" fill="#282E38"/>
<path id="Vector_46" d="M101.838 126.09C101.524 126.136 101.241 126.146 100.988 126.117C101.806 125.645 102.613 125.158 103.408 124.652C101.98 125.96 101.849 126.079 101.838 126.09Z" fill="#282E38"/>
<path id="Vector_47" d="M101.242 118.985C101.147 119.028 99.6448 117.953 98.9326 117.437C99.035 117.27 99.1327 117.103 99.2271 116.935C100.755 114.248 101.991 111.078 102.953 108.062L105.564 106.796C104.172 111.003 102.583 115.657 101.575 118.129C101.576 118.131 101.444 118.471 101.242 118.985Z" fill="#282E38"/>
<path id="Vector_48" d="M101.075 9.33883L100.014 10.22C90.4765 4.93623 79.5112 1.92654 67.8545 1.92654V0.667969C77.0099 0.667969 85.8916 2.46067 94.2533 5.9949C96.5977 6.98641 98.8734 8.10265 101.075 9.33883Z" fill="#282E38"/>
<path id="Vector_49" d="M99.6463 123.036C101.032 124.305 104.899 122.649 108.642 119.863C106.011 122.271 104.396 123.749 103.407 124.652C102.612 125.158 101.805 125.645 100.987 126.117C100.629 126.077 100.334 125.959 100.104 125.749C99.219 124.937 99.0766 124.435 99.4702 123.469C99.5151 123.363 99.5759 123.215 99.6463 123.036Z" fill="#282E38"/>
<path id="Vector_50" d="M100.617 96.1226C100.302 98.176 99.3355 104.322 98.3257 109.222L93.9824 111.329C95.0802 103.557 94.9922 92.8762 94.9922 92.8762C94.9922 92.8762 97.8008 94.8033 100.617 96.1226Z" fill="#282E38"/>
<path id="Vector_51" d="M106.314 78.2194C104.967 73.7976 103.139 67.4504 102.112 57.1947C102.108 57.1627 102.105 57.1291 102.102 57.0971C101.203 48.2088 99.0087 41.3386 98.4549 39.7106C96.733 39.434 94.6798 38.9606 92.625 38.145C93.2715 39.1749 94.5214 41.409 95.5472 44.6953C97.0019 49.3538 97.2579 55.4244 97.2579 55.4244C97.2579 55.4244 97.2851 56.088 97.3411 57.1563C97.4372 59.0594 97.6196 62.2482 97.8788 65.2723C98.2837 69.9947 99.0647 77.7396 102.048 85.1759C104.832 92.1164 112.174 96.4055 118.957 96.5782C119.04 96.22 119.174 95.8698 119.368 95.5355C119.792 94.7999 120.45 94.2418 121.213 93.9267C112.906 92.3851 107.577 82.3677 106.314 78.2194Z" fill="#282E38"/>
<path id="Vector_52" d="M78.2566 20.3892C79.06 20.861 79.8345 21.3791 80.6011 21.9101C81.3692 22.4426 82.1134 23.0103 82.8399 23.602C84.2994 24.779 85.6901 26.0472 86.9975 27.4097C85.8789 25.8841 84.5762 24.4976 83.1984 23.1894C81.8125 21.8925 80.3178 20.6979 78.7175 19.652C77.9141 19.1307 77.0884 18.6429 76.2306 18.2079C75.3696 17.7809 74.4878 17.3907 73.5805 17.0597C73.3532 16.9781 73.1212 16.9046 72.8923 16.831C72.7755 16.7942 72.6635 16.7543 72.5451 16.7207L72.1946 16.6263C71.9594 16.5655 71.7273 16.492 71.4889 16.444L70.7767 16.2889C70.5383 16.2377 70.2966 16.2105 70.0566 16.1705L69.6949 16.1146C69.5749 16.0986 69.4533 16.089 69.3316 16.0762C69.09 16.0554 68.8483 16.0266 68.6051 16.0106L68.373 16.0026V11.8943C75.7393 12.0398 80.8747 13.986 84.7475 16.767L87.6488 21.0225L90.515 22.3978C91.8737 24.1122 93.0579 25.8921 94.1925 27.6144C97.374 32.4504 100.6 35.8871 102.381 37.6286H102.037V38.6073H103.418C103.639 38.8072 103.767 38.916 103.782 38.9304C101.314 38.6137 98.9263 38.0076 96.633 37.208C96.633 37.208 96.6314 37.208 96.6314 37.2064C94.1973 35.9367 91.7713 34.2031 88.6762 31.7819C85.5812 29.3623 83.544 27.3266 78.7655 24.1218C74.5407 21.288 69.4885 20.9602 68.3746 20.9202V17.1157L68.5395 17.1205C68.7667 17.1365 68.9924 17.1589 69.2196 17.1796C69.3332 17.1908 69.4469 17.1972 69.5605 17.2132L69.8981 17.2628C70.1238 17.2996 70.351 17.3236 70.5751 17.3699C71.4761 17.5299 72.3594 17.7777 73.2348 18.056C74.107 18.3471 74.9615 18.6957 75.8017 19.0843C76.2178 19.289 76.6339 19.4905 77.0403 19.7112C77.4532 19.9223 77.8533 20.159 78.2566 20.3892Z" fill="#282E38"/>
<path id="Vector_53" d="M93.9829 111.329L98.326 109.222C98.2412 109.637 98.1532 110.042 98.0684 110.435L93.8037 112.505C93.8677 112.123 93.9269 111.729 93.9829 111.329Z" fill="#282E38"/>
<path id="Vector_54" d="M98.0684 110.435C98.1532 110.042 98.2412 109.637 98.326 109.222L103.351 106.783C103.224 107.205 103.092 107.632 102.954 108.064L98.0684 110.435Z" fill="#282E38"/>
<path id="Vector_55" d="M93.8028 112.505L98.0677 110.436C97.9684 110.89 97.8692 111.33 97.7716 111.745C96.3601 117.728 92.0409 122.941 86.3101 126.487C80.581 130.034 71.3008 130.664 71.3008 130.664C72.5362 130.031 73.8133 128.738 74.9975 127.24C81.354 128.287 91.1511 122.759 93.1115 115.761C93.3787 114.808 93.6076 113.703 93.8028 112.505Z" fill="#282E38"/>
<path id="Vector_56" d="M105.801 92.718C103.843 90.9652 100.787 85.7838 99.4826 80.5288C98.1783 75.2723 97.7302 72.4513 97.4726 65.7426C97.3205 61.7398 97.2725 58.8405 97.2597 57.1533C97.2517 56.0131 97.2581 55.4262 97.2581 55.4262C97.2581 55.4262 97.0021 49.3556 95.5474 44.6972C94.5216 41.4108 93.2717 39.1767 92.6252 38.1468C92.542 38.1133 92.4604 38.0797 92.3772 38.0461C87.2626 35.9479 85.5518 34.9532 85.499 34.9229C85.5886 35.0412 91.313 42.7142 92.6812 51.3626C92.9645 53.1489 93.1229 54.8537 93.1965 56.4945C93.483 62.8641 92.4892 68.2614 92.4892 73.6379C92.4892 80.4009 95.4082 93.0922 108.654 95.3342C108.656 95.3342 107.758 94.4691 105.801 92.718Z" fill="#282E38"/>
<path id="Vector_57" d="M78.7639 24.1186C83.544 27.3234 85.5796 29.3592 88.6746 31.7788C91.7681 34.1999 94.1957 35.9335 96.6298 37.2032C89.8285 34.8332 83.8673 30.7681 79.2136 27.5809C72.9916 23.3174 68.373 22.4298 68.373 22.4298V20.917C69.4869 20.957 74.5391 21.2864 78.7639 24.1186Z" fill="#282E38"/>
<path id="Vector_58" d="M88.97 20.5699L88.3091 20.2533L87.4834 19.0427C88.0051 19.5369 88.498 20.0486 88.97 20.5699Z" fill="#282E38"/>
<path id="Vector_59" d="M87.4849 19.0429C86.6447 18.2385 85.7357 17.4725 84.7483 16.764L78.3311 7.34473C78.7823 7.41829 79.232 7.49985 79.6801 7.58781L87.4849 19.0429Z" fill="#282E38"/>
<path id="Vector_60" d="M90.5144 22.3945L87.6483 21.0192L84.7471 16.7639C85.736 17.4723 86.6434 18.2383 87.4835 19.0427L88.3092 20.2532L88.9701 20.5698C89.5126 21.1663 90.0247 21.7756 90.5144 22.3945Z" fill="#282E38"/>
<path id="Vector_61" d="M79.4472 118.32C79.6537 117.931 79.8633 117.525 80.0793 117.096C81.1419 114.98 81.9501 113.595 82.5934 112.482C82.5934 112.481 82.5934 112.479 82.595 112.478C83.2304 111.376 83.6993 110.543 84.0897 109.532C84.8739 107.496 86.2053 102.737 86.559 98.587C86.8311 95.3742 85.9717 92.1022 84.5794 89.1693C84.1729 88.3137 83.7201 87.4869 83.24 86.6969C81.1067 83.2027 73.4092 77.9797 72.5114 77.5143C71.6137 77.0506 71.8697 76.7307 72.1274 76.5372C72.3834 76.3437 74.9183 74.8708 74.9183 74.8708C74.9183 74.8708 78.7991 76.1678 81.9405 78.9728C85.0835 81.7762 86.0629 83.6361 86.0629 83.6361C86.0629 83.6361 82.9039 75.4961 83.448 75.3202C83.9921 75.1443 88.3866 77.8837 89.9261 81.9713C91.4656 86.0573 91.1295 94.5186 89.9261 99.2299C88.7226 103.941 86.0613 107.821 84.3778 111.106C83.2576 113.292 81.7005 116.105 80.7851 117.739L79.5144 118.356L79.4472 118.32Z" fill="#282E38"/>
<path id="Vector_62" d="M82.8648 111.74C84.5564 109.068 85.5422 94.3922 85.0717 90.9107C84.99 90.311 84.8044 89.7353 84.5436 89.1852L84.5772 89.1692C85.9694 92.1037 86.8288 95.3741 86.5568 98.5869C86.2047 102.737 84.8732 107.496 84.0875 109.532C83.697 110.544 83.2265 111.377 82.5928 112.478C82.6968 112.223 82.7864 111.98 82.8648 111.74Z" fill="#282E38"/>
<path id="Vector_63" d="M93.8039 112.505L79.9531 119.228C80.0011 119.133 80.0251 119.084 80.0251 119.084C80.0251 119.084 80.3228 118.558 80.7837 117.736L93.9831 111.328C93.9271 111.729 93.8679 112.122 93.8039 112.505Z" fill="#282E38"/>
<path id="Vector_64" d="M79.94 119.236L79.5127 118.355L80.7833 117.737C80.3224 118.559 80.0248 119.085 80.0248 119.085C80.0248 119.085 80.0008 119.135 79.9528 119.229L79.94 119.236Z" fill="#282E38"/>
<path id="Vector_65" d="M77.523 4.42114L79.6801 7.58742C79.2304 7.49947 78.7824 7.41791 78.3311 7.34435H78.3295L76.7148 4.97284L77.523 4.42114Z" fill="#282E38"/>
<path id="Vector_66" d="M76.8706 67.4667C78.074 69.2146 78.2757 70.5435 78.5717 72.058C78.7958 73.203 78.9286 74.759 78.9798 75.4499C78.7525 75.306 78.5221 75.178 78.2981 75.0693C76.8866 74.396 76.6929 74.1641 76.7586 74.0282C76.8226 73.8907 77.8084 73.211 77.5123 71.9524C77.2162 70.6939 75.3791 67.2732 72.6377 67.8649C72.6377 67.8649 72.3913 59.0933 72.6697 58.0906C72.6809 58.049 72.6954 58.0074 72.713 57.9658C72.9306 57.4285 73.5931 56.9088 74.3645 56.2483L74.5485 56.3506C74.6253 56.3011 74.8414 56.2579 75.3263 56.2483C74.7822 56.6449 74.038 57.3214 74.0156 57.4173C73.99 57.5229 73.7756 61.6168 74.1916 63.1696C74.6109 64.7257 75.6703 65.7204 76.8706 67.4667Z" fill="#282E38"/>
<path id="Vector_67" d="M78.3282 7.3446C76.1214 6.96879 73.8873 6.71612 71.6325 6.58179C71.5189 4.59718 69.8657 3.01557 67.8525 3.01557V1.92651C79.5092 1.92651 90.4746 4.93621 100.012 10.22C106.246 13.671 111.866 18.0928 116.673 23.279L115.425 23.1255C113.97 22.9208 112.052 22.7753 110.086 22.9688C104.785 18.0688 98.7402 14.17 92.0909 11.357C88.0757 9.66025 83.9277 8.40008 79.6805 7.58768L77.5232 4.42127L76.7135 4.97139L78.3282 7.3446Z" fill="#282E38"/>
<path id="Vector_68" d="M90.3103 56.1698C90.2975 56.093 90.2847 56.0131 90.2687 55.9299L84.9492 55.439C84.4035 56.0547 83.4481 56.987 82.4127 57.4843C80.9452 58.1896 78.82 56.9566 77.9382 56.3633C77.0549 55.77 76.0227 55.778 75.477 56.1474C75.4289 56.1794 75.3809 56.2146 75.3281 56.253C76.6612 56.2258 77.3749 57.0478 78.764 58.1272C80.1547 59.2067 81.4573 59.6017 83.2657 58.8325C85.0724 58.0633 89.0076 56.5568 89.0076 56.5568C89.0076 56.5568 87.4681 59.9759 84.6244 65.3396C81.7806 70.7033 81.1821 73.8873 81.0108 74.9332C80.902 75.6049 81.2061 76.1726 81.4381 76.4924C81.6222 75.8096 82.0382 75.0691 82.7072 74.0073C82.9904 73.5595 83.3153 73.0541 83.6898 72.4704C85.3093 69.9373 88.3403 64.9062 89.126 63.3358C89.6653 62.2532 90.2079 60.4397 90.3647 58.6054C90.3647 58.6038 90.3647 58.6038 90.3647 58.6038C90.4367 57.7722 90.4303 56.939 90.3103 56.1698Z" fill="#282E38"/>
<path id="Vector_69" d="M89.0073 56.5537C89.0073 56.5537 87.4678 59.9728 84.624 65.3365C81.7802 70.7003 81.1817 73.8843 81.0105 74.9301C80.9017 75.6018 81.2057 76.1695 81.4378 76.4894C81.3626 76.7724 81.3273 77.0427 81.3321 77.3242C81.3321 77.3242 80.1863 76.2079 78.9829 75.4531C78.9317 74.7622 78.7988 73.2062 78.5748 72.0612C78.2787 70.5467 78.0771 69.2162 76.8737 67.4699C75.6718 65.722 74.614 64.7289 74.1963 63.1744C73.7803 61.62 73.9947 57.5261 74.0203 57.4221C74.0427 57.3278 74.7869 56.6513 75.331 56.2531C76.664 56.2259 77.3778 57.0479 78.7668 58.1274C80.1575 59.2068 81.4602 59.6018 83.2685 58.8326C85.0721 58.0602 89.0073 56.5537 89.0073 56.5537Z" fill="#282E38"/>
<path id="Vector_70" d="M77.7617 54.318C77.7617 54.3819 79.2116 56.1762 81.1848 56.2978C83.158 56.4177 84.5775 54.5674 85.0096 54.3899C85.088 54.3579 85.1584 54.3436 85.2176 54.3436C85.488 54.3436 85.5649 54.6314 85.3936 54.8873C85.3328 54.9784 85.176 55.1815 84.9471 55.4374C84.4014 56.0531 83.446 56.9854 82.4106 57.4828C80.9431 58.188 78.8179 56.955 77.9362 56.3617C77.0528 55.7684 76.0206 55.7764 75.4749 56.1458C75.4269 56.1778 75.3789 56.213 75.326 56.2514C74.8412 56.261 74.6251 56.3026 74.5483 56.3537L74.3643 56.2514C74.966 55.7365 75.6349 55.1368 76.2174 54.3755C77.6081 52.5604 79.5157 51.6521 80.7655 51.5865C82.017 51.5226 82.7547 51.7864 84.2942 52.6276C85.8321 53.4688 86.1298 53.6063 86.0578 53.8942C86.0033 54.1117 85.7841 54.1516 85.32 53.9853C85.1696 53.9326 84.9951 53.8574 84.7919 53.7582C83.9581 53.3568 82.0826 52.5397 80.7335 52.7875C79.3892 53.037 77.7617 54.254 77.7617 54.318Z" fill="#282E38"/>
<path id="Vector_71" d="M65.4638 6.80093C65.4638 8.12027 66.5344 9.18854 67.853 9.18854C69.1717 9.18854 70.2423 8.12027 70.2423 6.80093C70.2423 6.70338 70.2375 6.60743 70.2247 6.51308C70.0839 5.33127 69.0757 4.41333 67.8546 4.41333C66.6336 4.41333 65.6254 5.32967 65.4846 6.51308C65.4686 6.60583 65.4638 6.70338 65.4638 6.80093ZM67.853 3.01562C69.8678 3.01562 71.5209 4.59723 71.633 6.58184C71.6378 6.65381 71.6394 6.72737 71.6394 6.80093C71.6394 8.88789 69.9398 10.5862 67.8514 10.5862C65.763 10.5862 64.0635 8.88789 64.0635 6.80093C64.0635 6.72737 64.0667 6.65381 64.0699 6.58184C64.1851 4.59723 65.8382 3.01562 67.853 3.01562Z" fill="#282E38"/>
<path id="Vector_72" d="M71.3016 130.664C71.3016 130.664 80.5818 130.034 86.3109 126.487C92.0417 122.941 96.3609 117.726 97.7724 111.745C97.87 111.329 97.9693 110.89 98.0685 110.435L102.953 108.064C101.991 111.08 100.755 114.249 99.2271 116.936C99.1327 117.104 99.0335 117.272 98.9326 117.438C96.4089 121.619 92.2929 125.449 86.9463 127.951C86.9447 127.955 86.9447 127.955 86.9431 127.953C81.9933 129.549 76.8723 130.509 71.6377 130.817C71.4408 130.83 71.2424 130.841 71.0439 130.851L71.3016 130.664Z" fill="#282E38"/>
<path id="Vector_73" d="M71.0417 130.851C71.2402 130.841 71.4386 130.83 71.6354 130.817C76.8701 130.509 81.9895 129.549 86.9408 127.953C82.428 130.067 77.0365 131.239 70.9873 130.881V130.88C71.0241 130.862 71.0417 130.851 71.0417 130.851Z" fill="#282E38"/>
<path id="Vector_74" d="M67.8524 1.92651V3.01557C65.8376 3.01557 64.1845 4.59718 64.0725 6.58179C61.8176 6.71612 59.5836 6.96879 57.3768 7.3446L58.9931 4.97299L58.1833 4.42287L56.0261 7.58928C51.7789 8.40328 47.6308 9.66184 43.6156 11.3586C36.9663 14.1716 30.9219 18.0688 25.6201 22.9704C23.6549 22.7769 21.7361 22.9224 20.2814 23.1271C19.7869 23.1959 19.3453 23.271 18.9756 23.343C31.1396 10.1784 48.5494 1.92651 67.8524 1.92651Z" fill="#282E38"/>
<path id="Vector_75" d="M67.8531 0.669434V1.928C48.5501 1.928 31.1402 10.1799 18.973 23.3413C17.0815 25.3867 15.3163 27.5504 13.6936 29.8197L12.4854 29.2823C14.6906 26.1767 17.1647 23.2501 19.8964 20.5219C26.1248 14.2978 33.3791 9.41066 41.4543 5.99797C49.8143 2.46054 58.6961 0.669434 67.8531 0.669434Z" fill="#282E38"/>
<path id="Vector_76" d="M89.6458 53.4543C88.828 50.6605 87.5413 47.1023 87.0068 45.6886C86.2691 43.7328 84.6656 36.8098 78.6676 31.8107C73.8106 27.76 69.365 27.301 67.8527 27.2722C66.3404 27.301 61.8963 27.76 57.0377 31.8107C51.0397 36.8098 49.4362 43.7328 48.6985 45.6886C48.164 47.1023 46.8773 50.6605 46.0596 53.4543C46.9637 52.7475 48.7641 51.4857 50.8829 50.8092C50.5949 50.1504 50.0043 48.4344 50.414 46.1524C50.9437 43.205 52.9313 38.9576 55.7719 35.7208C58.5068 32.6023 64.0535 30.3459 67.8543 30.2563C71.655 30.3459 77.2017 32.6023 79.9366 35.7208C82.7756 38.9576 84.7632 43.205 85.2945 46.1524C85.7042 48.4344 85.1137 50.152 84.8256 50.8092C86.9412 51.4873 88.7416 52.7475 89.6458 53.4543Z" fill="#282E38"/>
<path id="Vector_77" d="M85.3215 46.0865C84.7918 43.1392 82.8042 38.8917 79.9637 35.6549C77.2287 32.5365 71.4544 30.2407 67.6537 30.1512V48.7419C67.4552 50.8272 66.9988 52.2445 66.6564 55.3246C66.1859 59.58 66.6564 68.7008 66.6564 71.6817C66.6564 74.0917 67.3369 75.8742 67.6537 76.4692L67.8532 76.6686C69.0887 76.5247 70.8227 74.9057 71.1844 74.3364C71.546 73.767 71.5684 73.2153 71.7125 73.2153C71.8581 73.2153 73.2392 73.6375 73.9561 73.524C74.6714 73.412 75.3932 72.7755 75.638 72.4413C75.8845 72.1039 75.8573 71.8144 75.1947 70.9349C74.5322 70.0521 73.6776 69.7802 72.8583 70.3687C72.0421 70.9557 71.0947 71.2931 71.0947 71.2931C71.0947 71.2931 70.5986 71.2291 70.5986 67.7828C70.5986 64.8147 70.6098 61.0534 70.613 57.5624C70.6146 56.9994 70.6146 56.4445 70.6146 55.9008C70.6146 51.9827 71.7589 50.7689 73.0631 50.4491C74.3674 50.1277 78.6114 50.0221 82.6314 50.2988C83.3916 50.35 84.1405 50.5131 84.8526 50.7402C85.1407 50.0861 85.7312 48.3701 85.3215 46.0865Z" fill="#282E38"/>
<path id="Vector_78" d="M72.0293 82.5135C69.1007 82.7278 67.8525 84.0103 67.8525 84.0103C67.8525 84.0103 66.6042 82.7278 63.6756 82.5135C60.9103 82.312 57.9913 84.4357 56.127 87.028C56.4774 87.4518 57.4344 88.3042 59.4524 88.3682C62.1057 88.4513 64.6374 87.164 64.7143 87.1256C64.7159 87.124 64.7159 87.124 64.7159 87.124C64.7159 87.124 66.0329 88.2098 67.8525 88.357C69.6704 88.2098 70.9891 87.124 70.9891 87.124C70.9891 87.124 70.9891 87.124 70.9907 87.1256C71.0675 87.164 73.5992 88.4513 76.2525 88.3682C78.2705 88.3042 79.2275 87.4518 79.578 87.028C77.7136 84.4357 74.7946 82.312 72.0293 82.5135Z" fill="#282E38"/>
<path id="Vector_79" d="M70.1889 91.5534C69.8096 91.1377 69.1183 90.5332 67.8525 90.4053C66.5851 90.5332 65.8938 91.1377 65.5161 91.5534C65.2025 91.8957 64.9417 92.1243 64.5752 92.5081H67.8541H71.133C70.7649 92.1243 70.5025 91.8957 70.1889 91.5534Z" fill="#282E38"/>
<path id="Vector_80" d="M67.3329 20.9187V22.4315C67.3329 22.4315 62.7144 23.3191 56.4924 27.5826C51.8387 30.7698 45.8775 34.8333 39.0762 37.205C41.5103 35.9352 43.9363 34.2017 47.0313 31.7805C50.1263 29.3609 52.1636 27.3251 56.9421 24.1203C61.1653 21.2865 66.2191 20.9571 67.3329 20.9187Z" fill="#282E38"/>
<path id="Vector_81" d="M72.4246 93.9782C72.2198 93.7511 71.9798 93.4697 71.6757 93.113C71.4661 92.8684 71.2884 92.6733 71.13 92.5085H67.8509H64.5719C64.4135 92.6733 64.2358 92.87 64.0262 93.113C63.7221 93.4697 63.4837 93.7511 63.2772 93.9782C63.2772 93.9782 62.7603 98.0578 63.2884 100.365C63.8165 102.673 65.308 104.387 66.3674 106.807C66.5339 107.189 66.6779 107.581 66.8027 107.976C66.8523 108.134 66.9004 108.293 66.9436 108.449C67.4893 110.386 67.6157 112.215 67.8493 112.564C68.083 112.215 68.211 110.388 68.7535 108.453C68.7983 108.293 68.8463 108.134 68.8959 107.974C69.0208 107.581 69.1648 107.188 69.3312 106.805C70.3906 104.386 71.8805 102.671 72.4102 100.364C72.9415 98.0578 72.4246 93.9782 72.4246 93.9782Z" fill="#282E38"/>
<path id="Vector_82" d="M75.6727 99.3945C75.0741 96.8086 73.5138 94.9072 73.1186 94.6289C72.8961 94.4722 72.6865 94.2691 72.424 93.978C72.424 93.978 72.9409 98.0576 72.4128 100.365C71.8847 102.673 70.3932 104.387 69.3338 106.807C69.1674 107.189 69.0233 107.581 68.8985 107.976C68.8489 108.136 68.8009 108.294 68.7561 108.454C68.212 110.389 68.084 112.217 67.8519 112.566C67.6183 112.217 67.4902 110.386 66.9461 108.451C66.9029 108.292 66.8549 108.134 66.8053 107.977C66.6805 107.584 66.5365 107.191 66.37 106.808C65.3106 104.389 63.8207 102.674 63.291 100.367C62.7629 98.0592 63.2798 93.9796 63.2798 93.9796C63.0174 94.2723 62.8077 94.4738 62.5853 94.6305C62.1916 94.9088 60.6297 96.8102 60.0312 99.3961C59.8663 100.111 59.8471 100.786 59.9288 101.437V101.438C60.0712 102.583 60.5241 103.653 61.0362 104.726C61.2874 105.252 61.5531 105.782 61.8043 106.319C62.7325 108.32 66.9189 115.127 67.8519 116.639C68.7849 115.127 72.9713 108.32 73.8995 106.319C74.1492 105.782 74.4164 105.254 74.6677 104.726C75.1798 103.655 75.6327 102.583 75.7751 101.438V101.437C75.8583 100.784 75.8375 100.108 75.6727 99.3945Z" fill="#282E38"/>
<path id="Vector_83" d="M60.5384 71.004C61.201 70.1212 62.0555 69.8493 62.8749 70.4379C63.6911 71.0248 64.6385 71.3622 64.6385 71.3622C64.6385 71.3622 65.1346 71.2982 65.1346 67.8519C65.1346 64.8838 65.1234 61.1225 65.1202 57.6315C65.1186 57.0685 65.1185 56.5136 65.1185 55.9699C65.1185 52.0518 63.9743 50.838 62.6701 50.5182C61.3658 50.1968 57.1218 50.0912 53.1018 50.3679C52.3416 50.4191 51.5927 50.5822 50.8805 50.8093C50.5925 50.1504 50.002 48.4345 50.4117 46.1524C50.9414 43.2051 52.9289 38.9576 55.7695 35.7208C58.5044 32.6024 64.0511 30.3459 67.8519 30.2563V48.847C67.6535 50.9324 67.2454 52.3413 66.9029 55.4214C66.4324 59.6768 66.7061 68.8578 66.7061 71.8388C66.7061 74.2487 67.535 76.0303 67.8519 76.6252V76.6539C66.6164 76.51 64.9105 74.9716 64.5488 74.4023C64.1872 73.833 64.1648 73.2812 64.0207 73.2812C63.8751 73.2812 62.494 73.7034 61.7771 73.5899C61.0602 73.4779 60.34 72.8414 60.0952 72.5072C59.8487 72.173 59.8743 71.8835 60.5384 71.004Z" fill="#282E38"/>
<path id="Vector_84" d="M64.7162 130.881C58.6671 131.239 53.2756 130.067 48.7627 127.953C53.7125 129.549 58.8335 130.509 64.0681 130.817C64.265 130.83 64.4634 130.841 64.6618 130.851C64.6618 130.851 64.6794 130.862 64.7162 130.881Z" fill="#282E38"/>
<path id="Vector_85" d="M37.6357 110.436L41.9006 112.505C42.0958 113.703 42.3263 114.808 42.5935 115.761C44.5539 122.759 54.351 128.287 60.7075 127.24C61.8917 128.74 63.1688 130.031 64.4042 130.664C64.4042 130.664 55.124 130.034 49.3949 126.487C43.6641 122.941 39.3449 117.726 37.9334 111.745C37.8342 111.328 37.735 110.89 37.6357 110.436Z" fill="#282E38"/>
<path id="Vector_86" d="M50.4476 53.9613C49.9387 54.1548 49.7003 54.1229 49.6426 53.8942C49.5706 53.6063 49.8683 53.4688 51.4062 52.6276C52.9457 51.7864 53.6834 51.5226 54.9349 51.5865C56.1847 51.6505 58.0939 52.5588 59.483 54.3755C60.1071 55.1911 60.832 55.8212 61.4642 56.3601L61.1697 56.3665C61.1089 56.309 60.9009 56.261 60.376 56.2498C60.3247 56.2114 60.2751 56.1778 60.2271 56.1443C59.6814 55.7748 58.6476 55.7668 57.7658 56.3601C56.8841 56.9534 54.7589 58.1864 53.2914 57.4812C52.256 56.9838 51.3006 56.0515 50.7549 55.4358C50.5276 55.1783 50.3708 54.9752 50.3084 54.8857C50.1387 54.6298 50.214 54.3436 50.4812 54.342C50.542 54.342 50.6124 54.3563 50.6924 54.3883C51.1261 54.5658 52.544 56.4161 54.5172 56.2962C56.4888 56.1762 57.9403 54.3819 57.9403 54.3164C57.9403 54.2524 56.3144 53.0354 54.9669 52.7859C53.6178 52.5365 51.7423 53.3552 50.9085 53.7566C50.7357 53.8414 50.582 53.9086 50.4476 53.9613Z" fill="#282E38"/>
<path id="Vector_87" d="M61.4654 56.3586C62.1823 56.9679 62.7824 57.4605 62.9905 57.9674C63.0081 58.0074 63.0225 58.0506 63.0337 58.0921C63.3121 59.0964 63.0657 67.8665 63.0657 67.8665C60.3243 67.2731 58.4872 70.6954 58.1911 71.954C57.8951 73.2126 58.8809 73.8922 58.9449 74.0298C59.0089 74.1657 58.8168 74.3976 57.4054 75.0708C57.1813 75.178 56.9509 75.3075 56.7236 75.4515C56.7748 74.7606 56.9077 73.2046 57.1317 72.0595C57.4278 70.5451 57.6294 69.2146 58.8328 67.4683C60.0347 65.7203 61.0925 64.7272 61.5102 63.1728C61.9263 61.6184 61.7118 57.5244 61.6862 57.4205C61.6638 57.3261 60.9197 56.6497 60.3756 56.2515C60.9021 56.2611 61.1101 56.3106 61.1693 56.3682L61.4654 56.3586Z" fill="#282E38"/>
<path id="Vector_88" d="M61.6862 57.4187C61.7118 57.5243 61.9262 61.6182 61.5101 63.171C61.0941 64.7255 60.0346 65.7186 58.8328 67.4665C57.6294 69.2144 57.4277 70.5434 57.1317 72.0578C56.9076 73.2028 56.7748 74.7588 56.7236 75.4497C55.5186 76.2045 54.3743 77.3208 54.3743 77.3208C54.3791 77.0393 54.3439 76.769 54.2687 76.486C54.5008 76.1677 54.8064 75.6 54.696 74.9268C54.5232 73.8793 53.9246 70.6953 51.0825 65.3332C48.2387 59.9694 46.6992 56.5504 46.6992 56.5504C46.6992 56.5504 50.6344 58.0568 52.4411 58.826C54.2479 59.5968 55.5522 59.2002 56.9428 58.1208C58.3319 57.0413 59.0456 56.2193 60.3787 56.2465C60.9196 56.6463 61.6638 57.3228 61.6862 57.4187Z" fill="#282E38"/>
<path id="Vector_89" d="M48.7625 127.953C48.7609 127.955 48.7609 127.955 48.7593 127.951C43.4126 125.449 39.295 121.619 36.7729 117.438C36.6705 117.272 36.5729 117.104 36.4785 116.936C34.9502 114.249 33.7147 111.08 32.7529 108.064L37.6371 110.435C37.7363 110.89 37.8355 111.329 37.9332 111.745C39.3446 117.728 43.6639 122.941 49.3946 126.487C55.1237 130.034 64.404 130.664 64.404 130.664L64.6632 130.849C64.4648 130.84 64.2663 130.828 64.0695 130.816C58.8333 130.508 53.7123 129.549 48.7625 127.953Z" fill="#282E38"/>
<path id="Vector_90" d="M58.9913 4.97284L57.375 7.34435H57.3734C56.9221 7.41791 56.4725 7.49947 56.0244 7.58742L58.1815 4.42114L58.9913 4.97284Z" fill="#282E38"/>
<path id="Vector_91" d="M57.3735 7.34473L50.9563 16.764C49.9673 17.4725 49.0599 18.2385 48.2197 19.0429L56.0245 7.58781C56.4741 7.49985 56.9222 7.41829 57.3735 7.34473Z" fill="#282E38"/>
<path id="Vector_92" d="M82.5881 101.477C82.5833 101.405 82.46 98.8587 82.2936 95.825C82.1208 92.7482 81.7367 90.2918 79.8979 87.4916C79.7955 87.3349 79.6899 87.1798 79.5795 87.0278C79.229 87.4516 78.272 88.304 76.254 88.368C73.6007 88.4511 71.069 87.1638 70.9922 87.1254C71.1298 87.6915 71.6803 88.7726 73.6343 90.5269C75.9756 92.6266 77.5535 94.4833 78.9794 96.26C79.1842 96.5159 79.3874 96.7702 79.5875 97.0228C79.8547 97.3603 80.1188 97.6945 80.386 98.0271C81.0006 98.7931 81.5047 99.5544 81.9063 100.229C81.9063 100.229 81.9063 100.229 81.9063 100.231C82.18 100.696 82.4072 101.118 82.5881 101.477Z" fill="#282E38"/>
<path id="Vector_93" d="M59.4522 88.368C57.4342 88.304 56.4772 87.4516 56.1268 87.0278C56.0163 87.1798 55.9107 87.3349 55.8083 87.4916C53.9695 90.2918 53.5839 92.7482 53.4126 95.825C53.2446 98.8587 53.1214 101.405 53.1182 101.477C53.299 101.118 53.5246 100.695 53.8015 100.231C53.8015 100.229 53.8015 100.229 53.8015 100.229C54.2032 99.5544 54.7073 98.7931 55.3218 98.0271C55.589 97.6945 55.8531 97.3587 56.1204 97.0228C56.3204 96.7702 56.5236 96.5159 56.7285 96.26C58.1544 94.4833 59.7323 92.6266 62.0735 90.5269C64.0275 88.7742 64.578 87.6915 64.7157 87.1254C64.6372 87.1654 62.1055 88.4527 59.4522 88.368Z" fill="#282E38"/>
<path id="Vector_94" d="M56.1921 118.355L55.7649 119.236L55.7505 119.229C55.7024 119.135 55.6784 119.085 55.6784 119.085C55.6784 119.085 55.3808 118.559 54.9199 117.737L56.1921 118.355Z" fill="#282E38"/>
<path id="Vector_95" d="M54.9211 117.737C55.382 118.559 55.6796 119.086 55.6796 119.086C55.6796 119.086 55.7036 119.135 55.7516 119.23L41.9009 112.506C41.8385 112.124 41.7777 111.731 41.7217 111.331L54.9211 117.737Z" fill="#282E38"/>
<path id="Vector_96" d="M60.7886 74.8708C60.7886 74.8708 63.3235 76.3437 63.5795 76.5372C63.8372 76.7307 64.0932 77.0506 63.1955 77.5143C62.2977 77.9797 54.6002 83.2027 52.4669 86.6969C51.9853 87.4869 51.534 88.3137 51.1275 89.1693C49.7352 92.1038 48.8758 95.3742 49.1479 98.587C49.5 102.737 50.8314 107.496 51.6172 109.532C52.0077 110.544 52.4782 111.377 53.1119 112.478C53.1135 112.479 53.1135 112.481 53.1135 112.482C53.7552 113.595 54.5634 114.98 55.6276 117.096C55.8436 117.523 56.0533 117.931 56.2597 118.32L56.1941 118.355L54.9234 117.737C54.0081 116.101 52.451 113.29 51.3307 111.104C49.6472 107.819 46.9843 103.941 45.7824 99.2283C44.579 94.5186 44.2429 86.0557 45.7824 81.9697C47.3219 77.8821 51.7164 75.1427 52.2605 75.3186C52.8046 75.4945 49.6456 83.6345 49.6456 83.6345C49.6456 83.6345 50.625 81.7762 53.768 78.9712C56.9078 76.1678 60.7886 74.8708 60.7886 74.8708Z" fill="#282E38"/>
<path id="Vector_97" d="M56.9419 58.124C58.331 57.0446 59.0447 56.2226 60.3778 56.2498C60.3266 56.2114 60.277 56.1778 60.229 56.1442C59.6833 55.7748 58.6495 55.7668 57.7677 56.3601C56.8859 56.9534 54.7607 58.1864 53.2932 57.4812C52.2578 56.9838 51.3024 56.0515 50.7567 55.4358L45.4373 55.9267C45.4213 56.0099 45.4085 56.0899 45.3957 56.1666C45.2756 56.9374 45.2692 57.7706 45.3428 58.599C45.3428 58.599 45.3428 58.599 45.3428 58.6006C45.5013 60.4349 46.0422 62.2484 46.5815 63.331C47.3672 64.9015 50.3982 69.9325 52.0178 72.4657C52.3906 73.0478 52.7171 73.5547 53.0004 74.0025C53.6693 75.0644 54.0854 75.8048 54.2694 76.4877C54.5015 76.1694 54.8071 75.6017 54.6967 74.9284C54.5239 73.881 53.9253 70.697 51.0832 65.3348C48.2394 59.9711 46.6999 56.552 46.6999 56.552C46.6999 56.552 50.6351 58.0585 52.4418 58.8277C54.247 59.5985 55.5513 59.2035 56.9419 58.124Z" fill="#282E38"/>
<path id="Vector_98" d="M83.2383 86.6969C81.105 83.2026 73.4075 77.9796 72.5097 77.5143C71.612 77.0505 71.868 76.7306 72.1257 76.5371C72.3817 76.3436 74.9166 74.8708 74.9166 74.8708C73.9868 74.6309 72.7034 75.0307 71.7896 75.8799C70.8758 76.729 69.3683 77.994 67.9568 78.0276C67.9232 78.0292 67.888 78.0276 67.8528 78.026C67.8176 78.0276 67.7824 78.0292 67.7488 78.0276C66.3373 77.9956 64.8298 76.7306 63.9161 75.8799C63.0007 75.0307 61.7188 74.6309 60.789 74.8708C60.789 74.8708 63.3239 76.3436 63.58 76.5371C63.8376 76.7306 64.0937 77.0505 63.1959 77.5143C62.2981 77.9796 54.6006 83.2026 52.4674 86.6969C51.9857 87.4869 51.5344 88.3137 51.1279 89.1692L51.1615 89.1852C52.4146 86.5529 55.3944 84.5635 56.7402 83.6344C58.3646 82.5118 61.1219 80.5463 63.572 80.5463C66.0205 80.5463 67.8544 81.8929 67.8544 81.8929C67.8544 81.8929 69.69 80.5463 72.1369 80.5463C74.5854 80.5463 77.3443 82.5118 78.9686 83.6344C80.3145 84.5635 83.2927 86.5529 84.5473 89.1852L84.5809 89.1692C84.1712 88.3137 83.72 87.4869 83.2383 86.6969Z" fill="#282E38"/>
<path id="Vector_99" d="M50.6339 90.9107C50.1634 94.3922 51.1508 109.068 52.8407 111.74C52.9191 111.979 53.0087 112.223 53.1128 112.478C52.4774 111.376 52.0086 110.542 51.6181 109.532C50.8339 107.496 49.5025 102.737 49.1488 98.5869C48.8767 95.3741 49.7361 92.1021 51.1284 89.1692L51.162 89.1852C50.9011 89.7353 50.7139 90.311 50.6339 90.9107Z" fill="#282E38"/>
<path id="Vector_100" d="M50.9558 16.7639L48.0545 21.0192L45.1885 22.3945C45.6782 21.7756 46.1902 21.1663 46.7327 20.5698L47.3936 20.2532L48.2193 19.0427C49.0595 18.2383 49.9668 17.4723 50.9558 16.7639Z" fill="#282E38"/>
<path id="Vector_101" d="M43.3263 38.0444C48.4409 35.9462 50.1516 34.9515 50.2044 34.9211C50.1148 35.0395 44.3905 42.7124 43.0222 51.3609C42.739 53.1472 42.5805 54.852 42.5069 56.4928C41.2907 56.8766 39.844 57.0685 38.4453 57.1516C38.4533 56.0114 38.4469 55.4245 38.4469 55.4245C38.4469 55.4245 38.703 49.3539 40.1577 44.6955C41.1835 41.4091 42.4333 39.175 43.0798 38.1451C43.1614 38.1115 43.2431 38.078 43.3263 38.0444Z" fill="#282E38"/>
<path id="Vector_102" d="M48.22 19.0427L47.3943 20.2533L46.7334 20.5699C47.2055 20.0486 47.6999 19.5369 48.22 19.0427Z" fill="#282E38"/>
<path id="Vector_103" d="M37.2487 39.7106C38.9706 39.434 41.0238 38.9606 43.0786 38.145C42.4321 39.1749 41.1823 41.409 40.1565 44.6953C38.7018 49.3538 38.4457 55.4244 38.4457 55.4244C38.4457 55.4244 38.4185 56.088 38.3625 57.1563C36.4181 57.2683 34.581 57.1723 33.6016 57.0971C34.5025 48.2088 36.6966 41.3386 37.2487 39.7106Z" fill="#282E38"/>
<path id="Vector_104" d="M42.5073 56.4929C42.2208 62.8625 43.2146 68.2598 43.2146 73.6363C43.2146 80.3994 40.2956 93.0906 27.0498 95.3327C27.0498 95.3327 27.9476 94.4675 29.9048 92.7164C31.862 90.9637 34.9186 85.7823 36.2228 80.5273C37.5271 75.2707 37.9752 72.4497 38.2328 65.7411C38.3848 61.7383 38.4328 58.8389 38.4456 57.1518C39.8427 57.0686 41.2894 56.8783 42.5073 56.4929Z" fill="#282E38"/>
<path id="Vector_105" d="M41.9002 112.505L37.6356 110.435C37.5508 110.042 37.4627 109.637 37.3779 109.222L41.721 111.329C41.777 111.729 41.8378 112.123 41.9002 112.505Z" fill="#282E38"/>
<path id="Vector_106" d="M41.7208 111.329L37.3776 109.222C36.3678 104.322 35.4012 98.1761 35.0859 96.1243C35.0859 96.1227 35.0859 96.1227 35.0859 96.1227C37.9025 94.8034 40.7094 92.8779 40.7094 92.8779C40.7094 92.8779 40.623 103.559 41.7208 111.329Z" fill="#282E38"/>
<path id="Vector_107" d="M37.6353 110.435L32.7514 108.064C32.6121 107.634 32.4793 107.205 32.3545 106.783L37.3777 109.222C37.4641 109.637 37.5505 110.042 37.6353 110.435Z" fill="#282E38"/>
<path id="Vector_108" d="M32.8533 40.0961C32.8533 40.0961 34.6825 40.1233 37.2478 39.7107C36.6957 41.3387 34.5001 48.2088 33.6007 57.0972C33.5975 57.1292 33.5943 57.1628 33.5911 57.1947C32.5637 67.4504 30.7361 73.7976 29.3887 78.2194C28.126 82.3678 22.797 92.3836 14.4897 93.9252C14.1889 93.802 13.872 93.7173 13.5439 93.6741V92.1373C16.1028 89.812 21.944 83.9142 24.8982 76.1677C26.4265 72.1585 27.5243 67.9558 28.3789 63.9226L29.259 65.2867L31.1842 63.4284L29.0798 60.4043C29.9712 55.6291 30.5793 51.2665 31.2498 47.9658C32.6293 41.1692 32.8533 40.0961 32.8533 40.0961Z" fill="#282E38"/>
<path id="Vector_109" d="M36.4785 116.936C36.5729 117.104 36.6721 117.272 36.773 117.439C36.0608 117.955 34.5581 119.03 34.4637 118.987C34.2621 118.473 34.1292 118.133 34.1292 118.133C33.121 115.66 31.5319 111.005 30.1396 106.799L32.7514 108.066C33.7132 111.08 34.9486 114.25 36.4785 116.936Z" fill="#282E38"/>
<path id="Vector_110" d="M33.6022 57.0974C34.5816 57.171 36.4187 57.2685 38.3631 57.1566C38.2671 59.0596 38.0847 62.2484 37.8254 65.2725C37.4205 69.995 36.6396 77.7399 33.6566 85.1762C30.872 92.1167 23.5298 96.4057 16.7477 96.5785C16.6644 96.2202 16.53 95.87 16.3364 95.5358C15.9123 94.8001 15.2546 94.242 14.4912 93.927C22.7984 92.3854 28.1275 82.3696 29.3902 78.2212C30.7376 73.7995 32.5652 67.4522 33.5926 57.1966C33.5942 57.163 33.599 57.1294 33.6022 57.0974Z" fill="#282E38"/>
<path id="Vector_111" d="M35.0879 96.1243C35.4031 98.176 36.3697 104.322 37.3795 109.222L32.3561 106.783C31.1543 102.771 30.4422 99.2043 30.1621 97.6707C31.3415 97.4548 32.7354 97.1158 34.0429 96.5832C34.3869 96.4425 34.7374 96.2874 35.0879 96.1243Z" fill="#282E38"/>
<path id="Vector_112" d="M33.6681 37.6255V38.6042H32.2871C32.5271 38.3867 32.8808 38.0589 33.3241 37.6255H33.6681Z" fill="#282E38"/>
<path id="Vector_113" d="M17.0139 37.6255H33.3244C32.8827 38.0589 32.529 38.3851 32.2874 38.6042H16.7627C16.8939 38.286 16.9771 37.9565 17.0139 37.6255Z" fill="#282E38"/>
<path id="Vector_114" d="M32.7508 108.062L30.1392 106.796C29.9952 106.357 29.8527 105.924 29.7119 105.5L32.3523 106.781C32.4803 107.205 32.6132 107.632 32.7508 108.062Z" fill="#282E38"/>
<path id="Vector_115" d="M39.074 37.2048C36.7808 38.0044 34.3915 38.6105 31.9238 38.9272C31.9238 38.9272 32.0519 38.8184 32.2887 38.6041H33.6698V37.6254H33.3257C35.1069 35.8855 38.3315 32.4488 41.5145 27.6112C42.6491 25.8889 43.8334 24.1106 45.192 22.3947L48.0582 21.0193L50.9596 16.7639C54.8323 13.9845 59.9694 12.0366 67.334 11.8911V15.9995L67.102 16.0075C66.8587 16.0234 66.6171 16.0522 66.3754 16.073C66.2538 16.0858 66.1322 16.0954 66.0121 16.1114L65.6505 16.1674C65.4104 16.2074 65.1672 16.2345 64.9303 16.2857L64.2182 16.4408C63.9797 16.4904 63.7477 16.564 63.5125 16.6231L63.162 16.7175C63.0452 16.7511 62.9315 16.7911 62.8147 16.8278C62.5859 16.9014 62.3538 16.9766 62.1266 17.0565C61.2192 17.3876 60.3358 17.7778 59.4765 18.2048C58.6187 18.6397 57.7929 19.1275 56.9896 19.6488C55.3877 20.6963 53.8946 21.8893 52.5087 23.1863C51.1308 24.4944 49.8282 25.8809 48.7095 27.4066C50.0154 26.044 51.4077 24.7759 52.8672 23.5989C53.5937 23.0072 54.3378 22.4394 55.106 21.9069C55.8725 21.376 56.6471 20.8578 57.4505 20.3861C57.8537 20.1558 58.2538 19.9191 58.6667 19.7096C59.0732 19.4889 59.4909 19.2858 59.9053 19.0827C60.7439 18.6941 61.5985 18.3455 62.4722 18.0544C63.3476 17.7762 64.2326 17.5267 65.132 17.3684C65.356 17.322 65.5833 17.2964 65.8089 17.2612L66.1466 17.2117C66.2602 17.1957 66.3738 17.1893 66.4874 17.1781C66.7147 17.1589 66.9403 17.1349 67.1676 17.1189L67.3324 17.1141V20.9154C66.2186 20.9538 61.1648 21.2832 56.9416 24.117C52.1614 27.3218 50.1258 29.3576 47.0308 31.7772C43.9358 34.2 41.5081 35.9319 39.074 37.2048Z" fill="#282E38"/>
<path id="Vector_116" d="M29.0818 60.4028L31.1861 63.4268L29.261 65.285L28.3809 63.9209C28.6353 62.7312 28.8657 61.5542 29.0818 60.4028Z" fill="#282E38"/>
<path id="Vector_117" d="M30.1606 97.6707C30.4423 99.2043 31.1544 102.769 32.3547 106.783L29.7141 105.502C28.3699 101.402 27.3057 98.0289 27.3057 98.0289C27.3057 98.0289 28.5251 97.9681 30.1606 97.6707Z" fill="#282E38"/>
<path id="Vector_118" d="M30.1401 106.797L15.9277 99.8969C16.1438 99.6442 16.3246 99.3659 16.467 99.0701L29.7145 105.5C29.8537 105.926 29.9961 106.359 30.1401 106.797Z" fill="#282E38"/>
<path id="Vector_119" d="M20.2782 23.1255C21.7329 22.9208 23.6517 22.7753 25.6169 22.9688C25.0071 23.5301 24.407 24.1058 23.8165 24.6959C20.8191 27.6912 18.1594 30.9456 15.8565 34.4303C15.6453 34.2304 15.4085 34.0528 15.1476 33.9025C14.5731 33.5699 13.9186 33.3956 13.256 33.3956C13.0064 33.3956 12.7615 33.4212 12.5215 33.4675C13.08 32.5176 13.8369 31.403 14.6675 30.2547C16.7079 27.437 19.1948 24.4209 20.2782 23.1255Z" fill="#282E38"/>
<path id="Vector_120" d="M22.6465 111.502C26.8409 115.772 34.4632 118.986 34.4632 118.986C34.7737 119.781 35.2458 120.988 35.6346 121.975C31.3554 119.389 27.401 116.288 23.8163 112.705C23.421 112.308 23.0322 111.907 22.6465 111.502Z" fill="#282E38"/>
<path id="Vector_121" d="M18.9724 23.3399C19.3437 23.268 19.7854 23.1928 20.2783 23.124C19.1949 24.4194 16.708 27.4355 14.6676 30.2533L13.6914 29.8183C15.3157 27.549 17.0809 25.3853 18.9724 23.3399Z" fill="#282E38"/>
<path id="Vector_122" d="M15.1493 33.9009C15.4101 34.0512 15.647 34.2287 15.8582 34.4286C16.0775 34.6333 16.2679 34.8652 16.4295 35.1115C16.6088 35.3865 16.7496 35.684 16.852 35.9942C17.0232 36.5156 17.0809 37.0721 17.0152 37.6238C16.9768 37.9549 16.8952 38.2843 16.7656 38.6025C16.7016 38.7625 16.6248 38.9192 16.5367 39.0711C16.2103 39.6356 15.7494 40.0962 15.2053 40.4208L14.7348 39.7092L13.5169 40.8622L13.573 40.947C13.565 40.9486 13.557 40.9502 13.5474 40.9502C13.4513 40.9582 13.3521 40.9629 13.2529 40.9629C13.024 40.9629 12.792 40.9422 12.568 40.9006C12.4335 40.875 12.2991 40.843 12.1695 40.8046C11.8878 40.7215 11.619 40.6047 11.3629 40.456C10.4876 39.9507 9.85863 39.1335 9.59778 38.158C9.43774 37.5631 9.42494 36.9506 9.55617 36.3652C9.55617 36.3652 9.55617 36.3636 9.55777 36.3621C9.63938 35.991 9.78021 35.628 9.97545 35.289C9.97545 35.2874 9.97705 35.2874 9.97705 35.2858C10.1707 34.95 10.4107 34.6525 10.6892 34.3982C11.2013 33.9265 11.8382 33.6018 12.5264 33.4643C12.7648 33.4179 13.0112 33.3923 13.2609 33.3923C13.9186 33.3939 14.5732 33.5682 15.1493 33.9009ZM12.0607 39.247C12.1471 39.2966 12.2351 39.3414 12.3247 39.3765C12.3631 39.3925 12.3999 39.4085 12.4383 39.4213C12.4799 39.4373 12.5216 39.4517 12.5664 39.4645H12.568C12.5696 39.4661 12.5696 39.4661 12.5712 39.4645C12.6096 39.4789 12.6512 39.4885 12.6912 39.4981C12.736 39.5109 12.7824 39.5205 12.8288 39.5269C12.864 39.5333 12.8992 39.5397 12.9344 39.5429C12.9584 39.5477 12.9824 39.5493 13.0064 39.5509C13.0225 39.5541 13.0417 39.5557 13.0593 39.5557C13.0865 39.5589 13.1153 39.5605 13.1425 39.5605C13.1809 39.5636 13.2209 39.5636 13.2593 39.5636C13.3089 39.5636 13.3585 39.562 13.4081 39.5589C13.4545 39.5557 13.5009 39.5525 13.5474 39.5461C13.5842 39.5413 13.621 39.5365 13.6578 39.5301C13.661 39.5301 13.6626 39.5301 13.6674 39.5285C13.6946 39.5237 13.7218 39.5189 13.7506 39.5125C13.773 39.5077 13.797 39.5045 13.821 39.4965C13.8322 39.4949 13.8434 39.4917 13.8562 39.4885C13.8674 39.4853 13.8786 39.4837 13.8914 39.4805C14.013 39.4469 14.1315 39.4037 14.2483 39.351C14.2787 39.3366 14.3091 39.3238 14.3395 39.3062C14.4115 39.271 14.4835 39.231 14.5524 39.1846C14.5828 39.167 14.6132 39.1463 14.642 39.1239C14.6468 39.1207 14.6532 39.1175 14.658 39.1127C14.6852 39.0951 14.7092 39.0759 14.7332 39.0551C14.7476 39.0455 14.7604 39.0359 14.7732 39.0231C14.794 39.0071 14.8132 38.9911 14.834 38.9735C14.9124 38.9048 14.9876 38.8312 15.0549 38.7513C15.0789 38.7257 15.0997 38.7017 15.1189 38.6745C15.1397 38.6505 15.1573 38.6265 15.1749 38.6025C15.2293 38.5306 15.2805 38.4522 15.3269 38.3722C15.3477 38.3339 15.3685 38.2971 15.3877 38.2587C15.3989 38.2411 15.4069 38.2219 15.4149 38.2027C15.4501 38.1308 15.4805 38.0588 15.5061 37.9852C15.5141 37.9612 15.5237 37.9357 15.5317 37.9117C15.5445 37.8781 15.5541 37.8429 15.5622 37.8077C15.567 37.7885 15.5734 37.7693 15.5782 37.7486C15.5846 37.7262 15.591 37.7038 15.5942 37.6798C15.599 37.6622 15.6022 37.643 15.6054 37.6238C15.615 37.5854 15.6214 37.5439 15.6262 37.5039C15.631 37.4687 15.6342 37.4351 15.6374 37.3999C15.6422 37.3631 15.6438 37.328 15.6454 37.2928C15.6486 37.2544 15.6486 37.216 15.6486 37.176C15.6486 37.1265 15.647 37.0753 15.6438 37.0257C15.6422 36.9793 15.639 36.9346 15.631 36.8882C15.6278 36.8626 15.6262 36.8386 15.6198 36.813C15.6166 36.7842 15.6118 36.7539 15.6054 36.7235C15.599 36.6851 15.5894 36.6451 15.5782 36.6067C15.5782 36.6051 15.5782 36.6035 15.5766 36.6019C15.5718 36.5779 15.5638 36.5524 15.5574 36.53C15.5509 36.5028 15.5413 36.474 15.5317 36.4468C15.5157 36.3908 15.4933 36.3349 15.4709 36.2805C15.4549 36.2405 15.4389 36.2005 15.4213 36.1638C15.3941 36.1046 15.3637 36.047 15.3301 35.991C15.3125 35.9575 15.2917 35.9239 15.2693 35.8919C15.2341 35.8343 15.1957 35.7783 15.1525 35.7256C15.1301 35.6968 15.1061 35.6664 15.0805 35.6376C15.0645 35.62 15.05 35.6008 15.034 35.5848C15.01 35.5577 14.986 35.5321 14.962 35.5065C14.9268 35.4697 14.89 35.4345 14.8516 35.4009C14.8468 35.3961 14.842 35.3929 14.8356 35.3865C14.8068 35.3609 14.7748 35.3354 14.7428 35.3114C14.69 35.2666 14.6324 35.2266 14.5732 35.1866C14.5347 35.1595 14.4915 35.1355 14.4499 35.1115C13.6434 34.6445 12.6768 34.7037 11.9454 35.1818C11.6414 35.3801 11.3789 35.6504 11.1853 35.9862C10.526 37.1281 10.918 38.5865 12.0607 39.247Z" fill="#282E38"/>
<path id="Vector_123" d="M14.4919 93.9269C15.2553 94.2419 15.913 94.8001 16.3371 95.5357C16.5307 95.8699 16.6652 96.2201 16.7484 96.5784C16.942 97.4243 16.8348 98.3039 16.4667 99.0699C16.3259 99.3642 16.1451 99.6424 15.9274 99.8967C15.657 100.212 15.3305 100.487 14.9496 100.706C14.82 100.781 14.6856 100.848 14.548 100.906C14.0775 101.109 13.5702 101.213 13.0565 101.213C12.4083 101.213 11.7858 101.047 11.2353 100.746C11.2353 100.744 11.2337 100.744 11.2337 100.744C10.8624 100.54 10.5232 100.273 10.2367 99.9559C10.0623 99.7624 9.90704 99.5513 9.77422 99.3194C9.6814 99.1595 9.60138 98.9947 9.53577 98.8268C9.36614 98.403 9.27652 97.9569 9.26852 97.5043V97.5027C9.26051 97.1509 9.30372 96.7959 9.39654 96.4456C9.64619 95.5149 10.2255 94.7313 11.0385 94.2211C11.0785 94.1955 11.1201 94.1716 11.1617 94.1476C11.5954 93.8981 12.0739 93.735 12.5668 93.671C12.6084 93.6662 12.6516 93.6614 12.6948 93.6566C12.8132 93.6454 12.9332 93.6406 13.0549 93.6406C13.2197 93.6406 13.3845 93.6518 13.5478 93.6726C13.8726 93.7174 14.1911 93.8037 14.4919 93.9269ZM11.637 95.5085C11.6354 95.5085 11.6354 95.5085 11.6338 95.5117C11.5954 95.5389 11.5602 95.5661 11.5234 95.598C11.4866 95.6268 11.4529 95.6572 11.4193 95.6892C11.4145 95.6924 11.4113 95.6956 11.4065 95.702C11.3793 95.726 11.3537 95.7516 11.3297 95.7772C11.3137 95.7932 11.3009 95.8075 11.2881 95.8235C11.2657 95.8459 11.2449 95.8715 11.2257 95.8955C11.1985 95.9275 11.1729 95.9595 11.1473 95.9931C11.1169 96.033 11.0865 96.0762 11.0577 96.121C11.0577 96.121 11.0561 96.1226 11.0545 96.1242C11.0273 96.1658 11.0017 96.2089 10.9777 96.2521C10.9504 96.2953 10.928 96.3401 10.9056 96.3865C10.904 96.3913 10.9008 96.3944 10.9008 96.3992C10.88 96.4424 10.8608 96.4856 10.8432 96.5304C10.824 96.5784 10.8048 96.6247 10.7904 96.6743C10.776 96.7159 10.7632 96.7575 10.752 96.8022C10.7472 96.8166 10.7456 96.8294 10.7424 96.8422C10.7296 96.8838 10.72 96.9254 10.7136 96.9702C10.7136 96.9718 10.7136 96.9718 10.7136 96.9718C10.7024 97.0213 10.6944 97.0725 10.688 97.1237C10.6496 97.4259 10.6672 97.7362 10.7472 98.0384C10.7616 98.088 10.776 98.1392 10.792 98.1887C10.8176 98.2639 10.8464 98.3375 10.8784 98.4094C10.9104 98.4814 10.9488 98.555 10.9889 98.6253C11.4305 99.3914 12.2355 99.8199 13.0597 99.8183C13.0997 99.8183 13.1429 99.8167 13.1829 99.8151C13.2053 99.8135 13.2293 99.8119 13.2517 99.8103C13.2997 99.8071 13.3461 99.8023 13.3925 99.7943C13.4309 99.7896 13.4693 99.7832 13.5078 99.7752C13.5126 99.7752 13.5158 99.7752 13.519 99.772C13.567 99.764 13.6134 99.7528 13.6598 99.7416C13.6662 99.74 13.6742 99.7384 13.679 99.7368C13.7174 99.7272 13.7526 99.716 13.7894 99.7032C13.8038 99.7 13.8166 99.6952 13.8294 99.6904C13.8742 99.6744 13.919 99.6584 13.9622 99.6408C14.0103 99.6216 14.0567 99.6008 14.1031 99.5769C14.1063 99.5769 14.1079 99.5753 14.1095 99.5737C14.1575 99.5513 14.2039 99.5257 14.2487 99.5001C14.2887 99.4761 14.3303 99.4505 14.3687 99.4265C14.3815 99.4185 14.3943 99.4105 14.4055 99.4025C14.4439 99.3754 14.4791 99.3498 14.5143 99.3226C14.516 99.321 14.5192 99.3194 14.5192 99.3178C14.5448 99.2986 14.5688 99.2778 14.5944 99.257V99.2506C14.6248 99.2266 14.6552 99.201 14.684 99.1707C14.6904 99.1659 14.6984 99.1595 14.7048 99.1531C14.7304 99.1307 14.7544 99.1051 14.7768 99.0811C14.8504 99.0043 14.9192 98.9228 14.98 98.8396C15.0008 98.8124 15.0184 98.7868 15.0377 98.7581C15.0489 98.7421 15.0585 98.7277 15.0665 98.7117C15.0905 98.6765 15.1113 98.6413 15.1305 98.6061C15.1321 98.6045 15.1321 98.6045 15.1321 98.6045C15.1529 98.5694 15.1705 98.5342 15.1881 98.499C15.1945 98.4862 15.2025 98.4734 15.2073 98.4606C15.2105 98.4542 15.2121 98.4478 15.2153 98.4414C15.2329 98.403 15.2505 98.3663 15.2649 98.3263C15.2841 98.2799 15.3017 98.2335 15.3161 98.1871C15.3289 98.152 15.3401 98.1152 15.3497 98.08C15.3593 98.0448 15.3673 98.0112 15.3769 97.9761C15.3817 97.9601 15.3849 97.9457 15.3865 97.9297C15.3913 97.9057 15.3977 97.8817 15.4009 97.8593C15.4057 97.8321 15.4105 97.8065 15.4153 97.7794C15.4201 97.7554 15.4217 97.7314 15.4249 97.7074C15.4409 97.5715 15.4457 97.4355 15.4377 97.298C15.4361 97.2644 15.4345 97.2308 15.4313 97.1988C15.4313 97.1908 15.4297 97.1829 15.4281 97.1733C15.4265 97.1493 15.4233 97.1269 15.4201 97.1029C15.4153 97.0581 15.4073 97.0133 15.3977 96.9686C15.3897 96.9206 15.3785 96.8742 15.3673 96.8294C15.3561 96.7847 15.3433 96.7415 15.3289 96.6999C15.3193 96.6695 15.3097 96.6391 15.2969 96.6087C15.2953 96.5991 15.2921 96.5911 15.2873 96.5816C15.2761 96.5496 15.2633 96.5192 15.2489 96.4872C15.2489 96.4856 15.2489 96.484 15.2457 96.4824V96.4808C15.2313 96.444 15.2153 96.4088 15.1961 96.3721C15.1737 96.3241 15.1481 96.2777 15.1225 96.2313C15.0281 96.0682 14.9176 95.9195 14.7912 95.7883C14.78 95.7756 14.7688 95.7628 14.7576 95.7516C14.7464 95.7388 14.7336 95.7276 14.7208 95.7148C14.6824 95.6764 14.6424 95.6412 14.6024 95.6076C14.5624 95.5725 14.5208 95.5389 14.4775 95.5085C14.4359 95.4765 14.3927 95.4477 14.3495 95.4189C14.3063 95.3901 14.2599 95.363 14.2135 95.3374C14.2135 95.3374 14.2119 95.3374 14.2119 95.3358C14.2071 95.3342 14.2055 95.331 14.2007 95.331C14.1799 95.3182 14.1559 95.307 14.1335 95.2958C14.1063 95.2814 14.0807 95.2686 14.0519 95.2574C14.0183 95.2414 13.9862 95.227 13.9526 95.2142C13.9046 95.1951 13.8582 95.1759 13.8086 95.1615C13.8054 95.1599 13.8038 95.1599 13.8022 95.1583C13.7654 95.1455 13.7286 95.1343 13.6902 95.1247C13.6694 95.1199 13.6502 95.1135 13.6294 95.1087C13.6006 95.1007 13.5702 95.0943 13.543 95.0895C13.5094 95.0815 13.4741 95.0751 13.4405 95.0719C13.4293 95.0671 13.4181 95.0671 13.4069 95.0671C13.3813 95.0623 13.3573 95.0591 13.3317 95.0559C13.2901 95.0511 13.2485 95.0463 13.2053 95.0447C13.1557 95.0399 13.1045 95.0399 13.0533 95.0399C13.0085 95.0399 12.9636 95.0415 12.9204 95.0447C12.8948 95.0463 12.8708 95.0479 12.8468 95.0495C12.826 95.0511 12.8068 95.0527 12.786 95.0543C12.7588 95.0575 12.7284 95.0607 12.7012 95.0671C12.6868 95.0671 12.674 95.0687 12.6596 95.0735C12.6292 95.0767 12.5988 95.0815 12.5684 95.0895C12.5668 95.0895 12.5652 95.0895 12.5636 95.0911C12.5332 95.0959 12.5028 95.1023 12.4723 95.1119C12.4451 95.1167 12.4163 95.1247 12.3891 95.1343C12.3811 95.1343 12.3731 95.1375 12.3651 95.1407C12.3395 95.1455 12.3155 95.1551 12.2931 95.1631C12.2323 95.1823 12.1747 95.2046 12.1171 95.2302C12.0787 95.2462 12.0419 95.2622 12.0051 95.2814C11.9554 95.3038 11.9074 95.331 11.8578 95.3582C11.8194 95.3806 11.7794 95.4045 11.7426 95.4301C11.7074 95.4525 11.6722 95.4765 11.6386 95.5021C11.6402 95.5037 11.6402 95.5053 11.637 95.5085Z" fill="#282E38"/>
<path id="Vector_124" d="M16.4287 35.1132L46.7355 20.5701C46.193 21.1666 45.6809 21.7759 45.1912 22.3948L16.8512 35.9944C16.7488 35.6873 16.6079 35.3883 16.4287 35.1132Z" fill="#282E38"/>
<path id="Vector_125" d="M14.7334 39.7107L15.2039 40.4223C14.7126 40.7165 14.1541 40.902 13.5716 40.95L13.5156 40.8653L14.7334 39.7107Z" fill="#282E38"/>
<path id="Vector_126" d="M12.4834 29.2808L13.6916 29.8181C12.6274 31.3005 11.624 32.8294 10.6862 34.3982C10.4078 34.6525 10.1677 34.9499 9.97409 35.2858C9.97409 35.2874 9.97249 35.2874 9.97249 35.289C9.77725 35.628 9.63483 35.991 9.55481 36.362C9.55321 36.3636 9.55321 36.3652 9.55321 36.3652C4.33138 45.8037 1.33879 56.6351 1.28918 68.1493C0.937111 67.8343 0.508226 67.6056 0.0361328 67.4873C0.156156 58.6757 1.94691 50.1279 5.36038 42.0616C7.27756 37.531 9.66203 33.258 12.4834 29.2808Z" fill="#282E38"/>
<path id="Vector_127" d="M13.5713 40.9486C14.1538 40.9007 14.7123 40.7168 15.2036 40.4209L15.6965 41.1677L29.0815 60.4013C28.8655 61.5527 28.6351 62.7297 28.3822 63.9211L13.5713 40.9486Z" fill="#282E38"/>
<path id="Vector_128" d="M13.5464 92.1375V93.6742C13.3848 93.6534 13.2183 93.6422 13.0535 93.6422C12.9335 93.6422 12.8135 93.647 12.6934 93.6582L12.5654 93.5191V92.9946C12.7831 92.8155 13.1175 92.526 13.5464 92.1375Z" fill="#282E38"/>
<path id="Vector_129" d="M13.2513 40.9645C13.349 40.9645 13.4482 40.9597 13.5458 40.9517V92.1373C13.1185 92.5259 12.7824 92.8153 12.5664 92.9961V40.9021C12.7921 40.9437 13.0225 40.9645 13.2513 40.9645Z" fill="#282E38"/>
<path id="Vector_130" d="M12.5664 93.5193L12.694 93.6581C12.6526 93.6629 12.6095 93.6677 12.5664 93.6725V93.5193Z" fill="#282E38"/>
<path id="Vector_131" d="M11.2363 100.746C11.7852 101.046 12.4094 101.213 13.0575 101.213C13.5712 101.213 14.0785 101.107 14.549 100.906C16.7398 104.523 19.2987 107.909 22.2065 111.034C22.2177 111.046 22.2305 111.061 22.2433 111.072C22.3681 111.209 22.4961 111.344 22.6274 111.48C22.6338 111.486 22.6418 111.494 22.6466 111.5C23.0307 111.905 23.4211 112.306 23.818 112.703C27.4027 116.285 31.3571 119.388 35.6363 121.974H35.6379C35.798 122.378 35.9436 122.748 36.0588 123.036C34.0072 124.915 26.5241 120.384 22.0465 115.27C21.0095 114.086 19.9532 112.791 18.9434 111.502C18.9418 111.5 18.9402 111.497 18.9386 111.497C15.57 107.199 12.7022 102.942 12.7022 102.942L11.2363 100.746Z" fill="#282E38"/>
<path id="Vector_132" d="M18.9392 111.496C15.2361 107.29 12.3955 103.369 10.2383 99.9558C10.5247 100.272 10.864 100.54 11.2353 100.744C11.2353 100.744 11.2369 100.744 11.2369 100.746L12.7028 102.94C12.7028 102.94 15.5705 107.197 18.9392 111.496Z" fill="#282E38"/>
<path id="Vector_133" d="M10.6865 34.3995C11.6243 32.8291 12.6276 31.302 13.6918 29.8196L14.6679 30.2545C13.8374 31.4027 13.0805 32.5157 12.522 33.4672C11.8355 33.6015 11.1986 33.9278 10.6865 34.3995Z" fill="#282E38"/>
<path id="Vector_134" d="M1.29102 68.151C1.34063 56.6368 4.33321 45.8054 9.55504 36.3669C9.42542 36.9523 9.43822 37.5647 9.59665 38.1596C9.85751 39.1352 10.4864 39.9523 11.3618 40.4577C11.6179 40.6064 11.8883 40.7216 12.1684 40.8063C11.5634 42.0089 10.9969 43.2339 10.4704 44.4797C7.22499 52.1494 5.57986 60.2974 5.57986 68.7012C5.57986 77.105 7.22659 85.2545 10.4704 92.9226C10.6545 93.3608 10.8449 93.7942 11.0401 94.226C10.2272 94.7345 9.64626 95.5182 9.39821 96.4505C9.3038 96.8007 9.26059 97.1557 9.27019 97.5075C7.86031 95.0544 5.73349 91.1715 3.97315 87.1623C3.97155 87.1591 3.97154 87.1591 3.97154 87.1575C3.96994 87.1543 3.96994 87.1527 3.96994 87.1527C2.59367 82.4655 1.7199 77.5671 1.41264 72.5169" fill="#282E38"/>
<path id="Vector_135" d="M4.10742 87.6035C4.53471 88.9277 6.0246 93.0632 9.53569 98.8267C9.60291 98.9946 9.68292 99.1593 9.77414 99.3193C9.90697 99.5495 10.0622 99.7622 10.2366 99.9557C12.3955 103.368 15.236 107.29 18.9375 111.496C18.9391 111.497 18.9407 111.5 18.9423 111.5C19.9521 112.791 21.0084 114.085 22.0454 115.268C26.523 120.382 34.0061 124.913 36.0577 123.034C36.1297 123.213 36.189 123.362 36.2322 123.467C36.6258 124.435 36.4834 124.937 35.5984 125.748C35.3696 125.957 35.0735 126.075 34.7151 126.115C20.1522 117.729 9.046 103.991 4.10742 87.6035Z" fill="#282E38"/>
<path id="Vector_136" d="M1.22677 79.2625C1.75488 81.682 2.77748 84.4455 3.96811 87.1513C3.96811 87.1513 3.96811 87.1529 3.96971 87.1561C3.96971 87.1577 3.96971 87.1577 3.97131 87.1609C3.97291 87.1673 3.97612 87.1817 3.98252 87.2009C3.98732 87.2185 3.99532 87.2441 4.00492 87.2744C4.00812 87.284 4.00972 87.2952 4.01452 87.3064C4.02572 87.3464 4.03853 87.388 4.05133 87.4264C4.05613 87.444 4.06253 87.4647 4.06893 87.4855C4.07373 87.5031 4.08174 87.5239 4.08654 87.5431C4.09134 87.5623 4.09934 87.5831 4.10574 87.6039C9.04591 103.991 20.1521 117.73 34.7166 126.117C33.6924 126.233 32.1657 125.708 30.2917 124.891C30.2917 124.889 30.2901 124.889 30.2901 124.889C30.2885 124.889 30.2869 124.889 30.2853 124.888C26.5694 122.414 23.0967 119.567 19.8945 116.367C13.666 110.143 8.77546 102.895 5.36039 94.8259C3.24477 89.8252 1.75168 84.6358 0.895508 79.3152L1.22677 79.2625Z" fill="#282E38"/>
<path id="Vector_137" d="M9.53535 98.8285C6.02426 93.065 4.53437 88.9279 4.10708 87.6053C4.10068 87.5845 4.09268 87.5638 4.08788 87.5446C4.08308 87.5254 4.07508 87.5062 4.07028 87.487C4.06387 87.4662 4.05747 87.447 4.05267 87.4278C4.03987 87.3894 4.02707 87.3479 4.01586 87.3079C4.01106 87.2967 4.00946 87.2855 4.00626 87.2759C3.99666 87.2455 3.99026 87.2199 3.98386 87.2023C3.97906 87.1831 3.97426 87.1688 3.97266 87.1624C5.733 91.1715 7.85982 95.0544 9.2697 97.5076V97.5092C9.2761 97.9586 9.36572 98.4047 9.53535 98.8285Z" fill="#282E38"/>
<path id="Vector_138" d="M3.96858 87.151C2.77795 84.4452 1.75375 81.6818 1.22725 79.2622L0.89598 79.3133C0.572716 77.3095 0.33907 75.2866 0.198242 73.2476C0.660733 73.102 1.07681 72.8494 1.41288 72.5151C1.71854 77.5654 2.59231 82.4654 3.96858 87.151Z" fill="#282E38"/>
<path id="Vector_139" d="M1.29865 69.5646C1.29224 69.192 1.28904 68.8178 1.28904 68.4436C1.28904 68.346 1.28904 68.2485 1.29064 68.1493C0.938589 67.8343 0.509724 67.6056 0.0376511 67.4873C0.0328504 67.8055 0.03125 68.1254 0.03125 68.4436C0.03125 68.7234 0.0328501 69.0033 0.0360505 69.2815C0.052053 70.6088 0.106462 71.9313 0.197676 73.2474C0.199276 73.2474 0.199275 73.2474 0.199275 73.2474C0.661747 73.1019 1.07781 72.8492 1.41386 72.515C1.35305 71.5363 1.31465 70.5544 1.29865 69.5646Z" fill="#282E38"/>
</g>
</svg>
